<?xml version="1.0" encoding="utf-8"?>
<!-- Generator: Adobe Illustrator 16.0.0, SVG Export Plug-In . SVG Version: 6.00 Build 0)  -->
<!DOCTYPE svg PUBLIC "-//W3C//DTD SVG 1.1//EN" "http://www.w3.org/Graphics/SVG/1.1/DTD/svg11.dtd">
<svg version="1.1" id="Layer_1" xmlns="http://www.w3.org/2000/svg" xmlns:xlink="http://www.w3.org/1999/xlink" x="0px" y="0px"
	 width="749.766px" height="790.847px" viewBox="0 0 749.766 790.847" enable-background="new 0 0 749.766 790.847"
	 xml:space="preserve">
<g>
	<path d="M12.325,221.048c0.014-24.66,63.579-224.913,393.823-101.077c207.729,75.113,169.902,277.771,144.276,282.556
		c-35.398,6.611-105.223-53.907-260.267-95.586C160.746,272.152,12.291,280.635,12.325,221.048"/>
	<path d="M325.175,94.507c86.242,28.884,72.977-63.411,86.392-74.221C421.398,12.362,447.898,0,460.898,0
		c8.5,0,32.927,2.1,33,15.215c0.073,13.312-98.274,90.4-7.46,148.004"/>
	<path d="M488.233,435.416c0.165,34.707-5.335,68.207-16.443,108.379c-55.142,7.578-96.144,8.92-137.751-10.979
		c0.258-24.746,6.448-71.104,33.446-143.602l-51.218-16.261c-13.369,56.337-23.157,97.687-27.062,163.236
		c-4.782,80.248,1.324,152.512,18.146,236.477l42.135-21.969c-16.406-75.75-22.081-103.479-18.999-166.889
		c44.966,16.086,72.912,9.814,127.263,4.518c-3.352,18.799-16.988,51.133-32.352,85.174l27.933,17.201
		c23.409-40.016,66.679-159.822,76.146-239.689L488.233,435.416z"/>
	<path d="M220.861,351.319c-32.027,94.045-34.963,240.303-19.159,318.442c4.981,24.627,10.246,45.834,17.972,71.91
		c-26.73-8.277-60.301-29.273-79.372-52.555C62.898,594.623,40.001,442.21,65.584,315.968L6.797,295.151
		c-20.417,110.612-8.004,427.472,226.479,495.05c21.456,4.256,34.693-13.383,30.871-26.508
		c-39.915-137.07-31.582-279.736,9.751-401.503L220.861,351.319z"/>
	<path d="M476.648,25.373c0.5,15,22.197,51.24,48.175,44.683c9.495-2.396,23.062-9.414,28.641-6.128
		c5.357,3.155,5.996,3.43,8.854,4.368c5.429,1.784,7.812,1.559,19.832-5.229c7.59-4.285,24.668-5.188,26.644-4.379
		c4.823,1.976,3.969,9.595,2.229,15.655c-2.392,8.327-8.517,13.925-6.158,17.609c3.818,5.966,30.123-6.525,48.368-11.718
		c12.661-3.604,22.429-0.885,24.799,3.047c1.461,2.423,0.631,5.996-3.223,13.412c-4.229,8.142-13.232,15.912-11.294,20.723
		c1.372,3.403,24.915,0.374,38.346,0.335c11.737-0.034,16.006,4.481,17.432,7.395c1.046,2.138-2.965,5.417-7.188,10.613
		c-4.31,5.303-13.243,6.508-11.748,11.746c2.125,7.442,19.034,4.413,29.744,11.036c7.425,4.591,14.108,10.277,14.134,12.498
		c0.062,5.878-7.145,4.107-6.734,11.799c0.269,5.041,3.529,6.591,8.318,9.98c3.647,2.583,4.302,9.923,3.803,12.973
		c-0.877,5.357-10.745,8.556-18.794,8.496c-14.282-0.106-12.687-5.879-19.188-3.434c-9.762,3.67-2.932,18.292-18.171,21.481
		c-6.523,1.365-15.41-8.46-17.435-11.148c-11.156-14.823-15.247-18.578-19.417-18.99c-4.263-0.42-3.396,10.78-7.395,19.567
		c-3.723,8.181-4.119,13.193-8.056,12.865c-7.514-0.626-14.199-9.094-18.403-13.762c-11.195-12.431-10.729-37.623-23.017-41.6
		c-22.146-7.169-14.189,25.06-29.995,19.887c-2.488-0.815-7.92-6.74-9.084-8.604c-8.057-12.888-10.936-42.344-16.426-45.195
		c-5.69-2.955-3.562,15.02-14.049,10.463c-11.8-5.127-14.348-29.719-26.297-60.119c-4.977-12.662-29.329-32.826-41.996-40.826
		C446.031,44.852,476.594,23.713,476.648,25.373"/>
</g>
</svg>
