<?xml version="1.0" standalone="no"?>
<!DOCTYPE svg PUBLIC "-//W3C//DTD SVG 20010904//EN"
 "http://www.w3.org/TR/2001/REC-SVG-20010904/DTD/svg10.dtd">
<svg version="1.0" xmlns="http://www.w3.org/2000/svg"
 width="1435.000000pt" height="1435.000000pt" viewBox="0 0 1435.000000 1435.000000"
 preserveAspectRatio="xMidYMid meet">
<metadata>
Created by potrace 1.11, written by Peter Selinger 2001-2013
</metadata>
<g transform="translate(0.000000,1435.000000) scale(0.100000,-0.100000)"
fill="#000000" stroke="none">
<path d="M6809 14035 c-2 -2 -58 -6 -124 -10 -66 -3 -131 -8 -145 -10 -14 -2
-63 -7 -110 -10 -47 -4 -94 -9 -105 -11 -11 -2 -42 -6 -70 -9 -51 -6 -340 -50
-385 -60 -14 -2 -48 -9 -76 -15 -28 -6 -64 -13 -80 -16 -16 -3 -36 -7 -44 -9
-8 -2 -28 -7 -45 -9 -41 -7 -247 -60 -380 -97 -267 -75 -690 -229 -930 -339
-74 -33 -460 -225 -485 -240 -8 -5 -82 -49 -165 -96 -225 -130 -659 -424 -751
-509 -7 -5 -24 -19 -40 -30 -34 -24 -167 -135 -174 -144 -3 -4 -16 -15 -29
-24 -48 -33 -200 -175 -391 -367 -201 -201 -243 -245 -345 -365 -33 -38 -70
-81 -83 -95 -33 -36 -206 -260 -283 -365 -219 -300 -459 -699 -613 -1020 -44
-92 -165 -354 -165 -358 0 -3 -11 -32 -66 -172 -41 -103 -110 -306 -184 -540
-54 -170 -162 -644 -186 -815 -3 -25 -8 -52 -10 -60 -2 -8 -7 -40 -10 -70 -3
-30 -8 -62 -10 -70 -2 -8 -7 -44 -10 -80 -4 -36 -8 -76 -10 -90 -3 -23 -10
-97 -20 -210 -24 -273 -24 -889 0 -1090 9 -75 18 -175 17 -180 -2 -11 23 -194
53 -390 3 -14 7 -43 10 -65 4 -22 10 -56 15 -75 5 -19 11 -53 15 -75 9 -60 63
-298 92 -405 14 -52 27 -104 30 -115 31 -127 155 -489 233 -685 53 -134 71
-174 148 -345 47 -103 197 -396 246 -478 25 -43 46 -81 46 -83 0 -15 213 -345
348 -539 360 -515 904 -1076 1434 -1477 149 -113 353 -256 430 -303 9 -5 72
-44 140 -86 223 -139 608 -343 788 -418 30 -13 73 -31 95 -41 140 -63 379
-152 610 -226 141 -46 523 -150 615 -168 14 -2 57 -11 95 -19 39 -9 86 -18
105 -21 100 -17 351 -56 390 -61 25 -3 61 -7 80 -10 19 -2 64 -7 100 -10 36
-4 76 -8 90 -10 185 -26 1087 -27 1230 0 8 1 51 6 94 10 43 4 86 8 95 10 9 1
43 6 76 10 92 10 179 23 260 39 27 5 83 14 125 21 19 3 78 15 130 26 52 11
104 22 115 25 30 6 114 25 160 37 22 6 47 12 55 13 46 10 289 83 448 134 671
221 1367 586 1941 1018 112 85 266 207 298 236 6 6 37 34 69 61 215 184 485
451 654 645 36 41 68 77 71 80 47 42 342 427 460 600 66 97 229 353 242 380 5
8 13 24 20 35 84 138 265 491 337 655 17 41 36 83 41 92 30 59 142 356 204
543 59 175 139 455 160 555 2 8 12 53 23 100 26 109 69 330 77 395 4 28 8 57
10 65 4 15 6 30 25 180 17 134 19 151 26 225 31 327 36 953 9 1180 -2 17 -6
68 -10 115 -4 47 -9 94 -11 105 -2 11 -6 47 -9 80 -3 33 -8 71 -10 85 -2 14
-11 70 -20 125 -44 290 -108 584 -189 860 -1 6 -8 30 -15 55 -7 25 -39 124
-71 220 -171 513 -396 989 -684 1450 -81 130 -217 333 -268 400 -194 255 -299
386 -431 535 -90 101 -472 483 -552 552 -33 28 -76 66 -95 83 -182 162 -609
479 -802 595 -9 5 -68 41 -130 79 -62 38 -131 79 -153 91 -22 13 -78 44 -125
70 -82 45 -445 225 -455 225 -2 0 -35 14 -72 31 -37 17 -119 51 -183 76 -63
25 -135 53 -160 63 -25 10 -81 30 -125 45 -44 15 -89 31 -100 35 -53 24 -545
160 -665 185 -132 27 -324 65 -355 70 -209 32 -272 40 -365 50 -30 3 -68 8
-85 10 -16 2 -66 7 -110 10 -44 4 -105 9 -135 11 -69 6 -767 14 -771 9z"/>
</g>
</svg>
