<?xml version="1.0" encoding="UTF-8"?>
<svg width="90px" height="70px" viewBox="0 0 90 70" version="1.1" xmlns="http://www.w3.org/2000/svg" xmlns:xlink="http://www.w3.org/1999/xlink">
    <!-- Generator: Sketch 3.8.3 (29802) - http://www.bohemiancoding.com/sketch -->
    <title>Artboard 1</title>
    <desc>Created with Sketch.</desc>
    <defs></defs>
    <g id="Page-1" stroke="none" stroke-width="1" fill="none" fill-rule="evenodd">
        <g id="Artboard-1">
            <circle id="Oval-1" fill="#000000" cx="10" cy="18" r="7"></circle>
            <circle id="Oval-1" fill="#000000" cx="24" cy="25" r="6"></circle>
            <circle id="Oval-1" fill="#000000" cx="37.5" cy="31.5" r="4.5"></circle>
            <circle id="Oval-1" fill="#000000" cx="51" cy="39" r="3"></circle>
            <circle id="Oval-1" fill="#000000" cx="63.5" cy="45.5" r="1.5"></circle>
            <circle id="Oval-1" fill="#CC0002" cx="66" cy="22" r="7"></circle>
            <circle id="Oval-1" fill="#CC0002" cx="24" cy="60" r="7"></circle>
            <circle id="Oval-1" fill="#CC0002" cx="30.5" cy="45.5" r="5.5"></circle>
            <circle id="Oval-1" fill="#CC0002" cx="8.5" cy="41.5" r="1.5"></circle>
            <circle id="Oval-1" fill="#CC0002" cx="52" cy="27" r="6"></circle>
            <circle id="Oval-1" fill="#CC0002" cx="23" cy="37" r="3"></circle>
            <circle id="Oval-1" fill="#CC0002" cx="51" cy="4" r="2"></circle>
            <circle id="Oval-1" fill="#CC0002" cx="44" cy="18" r="3"></circle>
            <g id="C5_Logo_2015_Press_Quality" transform="translate(34.500000, 54.799999)">
                <path d="M8.86361446,8.75520482 L8.53706024,10.0321325 C8.10951807,10.2488193 7.64446988,10.4101084 7.13846988,10.5141446 C6.63260241,10.6181807 6.11706024,10.6693373 5.59184337,10.6693373 C3.96675904,10.6693373 2.63695181,10.2199277 1.60692771,9.31991566 C0.535951807,8.39008434 0,7.17266265 0,5.67056627 C0,3.82018072 0.579951807,2.39654217 1.74012048,1.39660241 C2.8023494,0.487313253 4.19444578,0.0318072289 5.92051807,0.0318072289 C6.44573494,0.0318072289 6.97426506,0.0948915663 7.50478313,0.217746988 C8.03543373,0.34153012 8.51877108,0.522301205 8.95492771,0.760325301 C8.90549398,0.95739759 8.84850602,1.19793976 8.78409639,1.47850602 C8.71968675,1.76092771 8.6626988,2.02956627 8.61326506,2.28733735 L8.40492771,2.28733735 C8.12674699,1.88206024 7.76480723,1.5536506 7.3189759,1.30025301 C6.87327711,1.04857831 6.41140964,0.923204819 5.93549398,0.923204819 C4.78513253,0.923204819 3.89691566,1.40786747 3.27283133,2.37679518 C2.73687952,3.20775904 2.46943373,4.23566265 2.46943373,5.46156627 C2.46943373,6.76751807 2.77663855,7.81344578 3.39091566,8.59908434 C4.00638554,9.38551807 4.87856627,9.77886747 6.00851807,9.77886747 C6.47475904,9.77886747 6.94842169,9.67642169 7.42857831,9.47510843 C7.90979518,9.27207229 8.32328916,9.0033012 8.67025301,8.66640964 L8.86361446,8.75520482" id="Fill-1" fill="#1A1918"></path>
                <path d="M14.9788193,6.5063012 L13.6071325,3.05177108 L12.1571205,6.5063012 L14.9788193,6.5063012 L14.9788193,6.5063012 Z M11.739253,7.41214458 C11.4117711,8.30950602 11.1721566,8.97122892 11.0229277,9.39466265 C10.8746265,9.81915663 10.7532289,10.1914337 10.6608554,10.5110964 L9.19692771,10.5110964 L13.6039518,0.205289157 L14.7759157,0.205289157 L19.0743976,10.5110964 L16.4245904,10.5110964 C16.1990241,9.80908434 16.0238193,9.27975904 15.901494,8.92338554 C15.7058795,8.35059036 15.5158313,7.8456506 15.3312169,7.41214458 L11.739253,7.41214458 L11.739253,7.41214458 Z" id="Fill-2" fill="#1A1918"></path>
                <path d="M22.3529277,9.63626506 L23.4765181,9.63626506 C24.5946747,9.63626506 25.4431325,9.3209759 26.0221566,8.69013253 C26.7073373,7.94040964 27.050988,6.73942169 27.050988,5.08889157 C27.050988,3.72860241 26.7470964,2.72389157 26.1391807,2.07303614 C25.5699639,1.46246988 24.7460241,1.15804819 23.6676265,1.15804819 L22.3529277,1.15804819 L22.3529277,9.63626506 L22.3529277,9.63626506 Z M25.0511084,0.284939759 C26.5215301,0.284939759 27.6546627,0.78060241 28.4495783,1.77113253 C29.145494,2.64251807 29.4925904,3.75298795 29.4925904,5.104 C29.4925904,6.76460241 28.9779759,8.09136145 27.949012,9.08189157 C26.9684217,10.0329277 25.6987831,10.5076506 24.1391687,10.5076506 L20.0198675,10.5076506 L20.0198675,0.284939759 L25.0511084,0.284939759 L25.0511084,0.284939759 Z" id="Fill-3" fill="#1A1918"></path>
                <path d="M33.2300723,5.09313253 C33.3020361,5.10320482 33.367506,5.10824096 33.4297952,5.10824096 L33.6296506,5.10824096 C34.975494,5.10824096 35.6488795,4.39191566 35.6488795,2.95953012 C35.6488795,2.72044578 35.6231687,2.47142169 35.5716145,2.21312048 C35.479241,1.74595181 35.2429398,1.42721687 34.8625783,1.25863855 C34.606,1.14877108 34.2107952,1.09350602 33.6768313,1.09350602 L33.2300723,1.09350602 L33.2300723,5.09313253 L33.2300723,5.09313253 Z M30.9195422,0.288253012 L34.200988,0.288253012 C34.9098916,0.288253012 35.428747,0.300975904 35.7574217,0.326024096 C36.0860964,0.350409639 36.3997952,0.437614458 36.6971928,0.586975904 C37.5909759,1.04486747 38.0377349,1.7560241 38.0377349,2.72044578 C38.0377349,3.42749398 37.8218434,4.01460241 37.3900602,4.48256627 C36.9582771,4.94973494 36.3739518,5.25746988 35.6339036,5.40683133 C36.0345422,6.08366265 36.5940843,6.95915663 37.3138554,8.03357831 C37.7961325,8.74977108 38.1462771,9.27140964 38.3621687,9.59942169 L38.9637229,10.5243494 L36.1730361,10.5243494 L34.3394819,7.39120482 L33.3375542,5.73550602 L33.2300723,5.73550602 L33.2300723,10.5243494 L30.9195422,10.5243494 L30.9195422,0.288253012 L30.9195422,0.288253012 Z" id="Fill-4" fill="#1A1918"></path>
                <path d="M46.0270482,0.403951807 L46.0224096,1.55126506 L42.5819277,1.5606747 L42.5819277,4.71144578 L46.0257229,4.70283133 L46.0258554,5.73338554 L42.5819277,5.73471084 L42.5819277,9.50718072 C42.5864337,9.50718072 46.0874819,9.50320482 46.0874819,9.50320482 L46.083241,10.6291807 L40.2843855,10.6291807 L40.2843855,0.403951807 L46.0270482,0.403951807" id="Fill-5" fill="#1A1918"></path>
                <path d="M54.4759759,0.312638554 L54.4759759,2.14089157 L49.3815181,2.14089157 L49.2418313,4.80209639 L49.346,4.84993976 C49.8551807,4.61257831 50.4523614,4.49343373 51.1387349,4.49343373 C51.7186867,4.49343373 52.219253,4.54538554 52.639241,4.64690361 C53.0592289,4.75014458 53.4651687,4.94549398 53.8562651,5.23149398 C54.6016145,5.78507229 54.9744217,6.49198795 54.9744217,7.3533012 C54.9744217,7.86579518 54.8347349,8.34475904 54.5565542,8.79006024 C54.2783735,9.23615663 53.8916506,9.6126747 53.3943976,9.92054217 C52.9807711,10.1863976 52.4835181,10.3894337 51.9046265,10.5268675 C51.3234819,10.6661566 50.7509518,10.7349398 50.1827952,10.7349398 C49.5909157,10.7349398 48.9905542,10.7289759 48.4652048,10.6417711 C47.939988,10.5545663 47.4877952,10.3466265 47.0377229,10.049759 C47.2161084,9.82406024 47.3964819,9.4106988 47.5382892,9.15981928 C47.6800964,8.90827711 47.8164699,8.624 47.9464819,8.30698795 L48.1956386,8.30778313 C48.3363855,8.78913253 48.5447229,9.17824096 48.8165422,9.47603614 C49.171988,9.85427711 49.6092048,10.0447229 50.1300482,10.0447229 C50.899253,10.0447229 51.4792048,9.77290361 51.8691084,9.2303253 C52.1891687,8.77906024 52.3492651,8.20626506 52.3492651,7.50942169 C52.3492651,6.90468675 52.1472892,6.38291566 51.7445301,5.9426506 C51.5566024,5.7473012 51.3310361,5.59131325 51.0699518,5.47389157 C50.8100602,5.35554217 50.5371807,5.29683133 50.2536988,5.29683133 C49.9572289,5.29683133 49.6801084,5.35063855 49.4190241,5.45798795 C49.1591325,5.56613253 48.9217711,5.71708434 48.7090602,5.91163855 L48.2837711,5.69693976 L48.5661928,0.312638554 L54.4759759,0.312638554" id="Fill-6" fill="#CC0002"></path>
            </g>
        </g>
    </g>
</svg>