<?xml version="1.0" encoding="utf-8"?>
<!-- Generator: Adobe Illustrator 17.0.0, SVG Export Plug-In . SVG Version: 6.00 Build 0)  -->
<!DOCTYPE svg PUBLIC "-//W3C//DTD SVG 1.1//EN" "http://www.w3.org/Graphics/SVG/1.1/DTD/svg11.dtd">
<svg version="1.1" id="Layer_1" xmlns="http://www.w3.org/2000/svg" xmlns:xlink="http://www.w3.org/1999/xlink" x="0px" y="0px"
	 width="159.2px" height="191.2px" viewBox="0 0 159.2 191.2" enable-background="new 0 0 159.2 191.2" xml:space="preserve">
<g>
	<path fill="#1C3144" d="M20.903,79.179c-1.075-4.438,1.618-43.25,66.455-35.389c40.662,4.444,42.706,42.565,38.303,44.546
		c-6.081,2.736-21.289-5.105-51.01-5.834C49.844,81.893,23.5,89.903,20.903,79.179"/>
	<path fill="#1C3144" d="M96.483,25.303c0.564,2.028,4.72,6.249,8.043,4.496c1.215-0.641,2.831-2.046,3.701-1.782
		c0.834,0.253,0.931,0.269,1.351,0.302c0.799,0.064,1.116-0.046,2.53-1.369c0.893-0.835,3.19-1.523,3.486-1.478
		c0.723,0.11,0.858,1.176,0.821,2.06c-0.05,1.214-0.7,2.179-0.257,2.603c0.718,0.687,3.889-1.886,6.204-3.197
		c1.606-0.91,3.027-0.862,3.48-0.405c0.279,0.282,0.284,0.796,0.005,1.934c-0.307,1.25-1.277,2.606-0.854,3.198
		c0.3,0.418,3.408-0.773,5.237-1.223c1.599-0.393,2.329,0.081,2.62,0.431c0.213,0.257-0.225,0.836-0.628,1.684
		c-0.412,0.865-1.59,1.325-1.213,1.989c0.536,0.944,2.74-0.028,4.419,0.52c1.164,0.38,2.263,0.934,2.339,1.236
		c0.203,0.799-0.838,0.796-0.528,1.831c0.203,0.678,0.699,0.782,1.464,1.085c0.583,0.231,0.914,1.21,0.947,1.642
		c0.058,0.759-1.181,1.521-2.28,1.779c-1.95,0.458-1.923-0.382-2.729,0.167c-1.209,0.823,0.205,2.59-1.766,3.528
		c-0.844,0.402-2.38-0.643-2.745-0.943c-2.011-1.651-2.692-2.028-3.274-1.946c-0.595,0.084-0.106,1.581-0.36,2.911
		c-0.237,1.238-0.125,1.934-0.672,2.02c-1.045,0.163-2.236-0.77-2.963-1.267c-1.937-1.324-2.706-4.772-4.513-4.908
		c-3.255-0.245-1.105,3.885-3.43,3.702c-0.366-0.029-1.302-0.657-1.523-0.872c-1.524-1.49-2.891-5.409-3.733-5.616
		c-0.873-0.215,0.012,2.165-1.568,1.891c-1.778-0.308-2.938-3.576-5.572-7.323c-1.097-1.561-5.083-3.504-7.074-4.175
		C92.955,28.97,96.421,25.078,96.483,25.303"/>
	<path fill="#1C3144" d="M71.675,42.744c16.781,1.431,10.363-14.598,12.305-17.129c1.423-1.855,5.652-5.237,7.992-5.805
		c1.53-0.371,6.017-1.06,6.603,1.297c0.595,2.392-13.737,20.56,5.121,26.959"/>
	<path fill="#1C3144" d="M115.907,96.97c1.545,6.238,2.019,12.507,1.774,20.221c-9.592,3.772-16.912,5.804-25.268,4.04
		c-1.034-4.465-1.945-13.077-0.253-27.302l-9.927-0.689c0.055,10.722,0.099,18.59,2.259,30.557
		c2.644,14.65,6.899,27.387,13.593,41.762l6.623-5.794c-6.261-12.915-8.493-17.657-10.708-29.202
		c8.794,0.931,13.549-1.418,23.098-4.745c0.218,3.529-0.824,9.943-2.102,16.74l5.778,1.875c2.465-8.223,5.019-31.672,3.234-46.458
		L115.907,96.97z"/>
	<path fill="#1C3144" d="M64.12,93.514c-1.656,18.322,4.203,44.77,10.46,58.141c1.972,4.214,3.846,7.8,6.375,12.155
		c-5.172-0.322-12.13-2.634-16.578-5.991c-18.056-13.624-28.833-40.051-29.743-63.886l-11.488-1.179
		c1.157,20.797,17.229,77.274,62.376,79.194c4.047-0.171,5.659-3.923,4.398-6.118c-13.169-22.923-17.9-48.96-15.781-72.678
		L64.12,93.514z"/>
</g>
</svg>
