<?xml version="1.0" encoding="UTF-8"?>
<svg width="90px" height="70px" viewBox="0 0 90 70" version="1.1" xmlns="http://www.w3.org/2000/svg" xmlns:xlink="http://www.w3.org/1999/xlink">
    <!-- Generator: Sketch 3.8.3 (29802) - http://www.bohemiancoding.com/sketch -->
    <title>Artboard 1</title>
    <desc>Created with Sketch.</desc>
    <defs></defs>
    <g id="Page-1" stroke="none" stroke-width="1" fill="none" fill-rule="evenodd">
        <g id="Artboard-1">
            <path d="M42.8580079,64.629834 C41.8708936,65.0368022 40.8037005,65.2402832 39.6563966,65.2402832 C38.0371827,65.2402832 36.7751673,64.7965214 35.8703125,63.9089844 C34.9654577,63.0214474 34.5130371,61.7810789 34.5130371,60.1878417 C34.5130371,58.5859457 34.9546343,57.3455772 35.8378418,56.4666991 C36.7210494,55.587821 37.9679119,55.1483885 39.5784669,55.1483885 C40.5569223,55.1483885 41.5938097,55.2890935 42.6891603,55.5705077 L42.6891603,57.5512206 L41.7215333,57.5512206 L41.7215333,57.4278319 C41.7215333,56.8520152 41.6284516,56.4861823 41.4422853,56.3303221 C41.0093404,55.9666484 40.3967326,55.7848143 39.6044434,55.7848143 C38.6606236,55.7848143 37.9311224,56.1647178 37.415918,56.924536 C36.9007136,57.6843543 36.6431153,58.7612885 36.6431153,60.155371 C36.6431153,61.5797597 36.9321016,62.6491175 37.5100831,63.3634765 C38.0880645,64.0778356 38.9528589,64.4350098 40.1044923,64.4350098 C40.9011109,64.4350098 41.8189402,64.1968936 42.8580079,63.7206543 L42.8580079,64.629834 Z M46.0855959,62.0776367 L45.5985353,63.1102051 C45.3604156,63.62108 45.0206545,65 45.0206545,65 L43.8000031,65 C43.8000031,65 44.142765,64.3116215 44.2315187,64.2207031 C44.3202724,64.1297847 44.5140123,63.7596224 44.8127443,63.1102051 L48.3910158,55.3042479 L49.0599123,55.3042479 L52.6641604,63.1166992 C52.9802102,63.7617871 53.1826089,64.12762 53.2713626,64.214209 C53.3601163,64.3007979 53.5863266,64.3592446 53.9500003,64.3895508 L54.0344241,64.3960449 L54.0344241,65 L51.4896929,65.0000001 L51.448103,65.0000001 C51.448103,65.0000001 50.8674494,63.6622098 50.612012,63.1037109 L50.1379397,62.0776367 L46.0855959,62.0776367 Z M46.3843263,61.4347167 L49.8327151,61.4347167 L48.0792971,57.7005858 L46.3843263,61.4347167 Z M55.3136722,65 C55.3136722,65 55.3527347,63.6968453 55.3527347,63.1166992 L55.3527347,57.2654784 C55.3527347,56.6853323 55.3136722,55.3886717 55.3136722,55.3886717 L57.4633304,55.3886717 L58.8595707,55.3691893 L59.3726078,55.3626952 C60.8835854,55.3626952 62.046025,55.7631632 62.8599614,56.5641112 C63.6695683,57.3650592 64.0743657,58.5080166 64.0743657,59.9930175 C64.0743657,61.5169835 63.6619919,62.732458 62.8372319,63.6394775 C62.0124719,64.546497 60.9073966,65 59.521973,65 L55.3136722,65 Z M57.3464359,56.0250975 L57.3464359,63.1166992 C57.3464359,63.6448919 57.4276118,63.9771722 57.5899662,64.1135498 C57.7523205,64.2499274 58.1473768,64.3181152 58.7751468,64.3181152 C59.8358618,64.3181152 60.6303037,63.957694 61.1584965,63.2368408 C61.6866892,62.5159876 61.9507817,61.434724 61.9507817,59.9930175 C61.9507817,58.5556405 61.6574659,57.5349883 61.0708256,56.9310302 C60.4841853,56.3270721 59.4895093,56.0250975 58.0867679,56.0250975 L57.3464359,56.0250975 Z M67.827979,60.7917968 L67.827979,63.1166992 C67.827979,63.6925159 67.9000015,65 67.9000015,65 L65.8666508,65 C65.8666508,65 65.9057133,63.6968453 65.9057133,63.1166992 L65.9057133,57.2654784 C65.9057133,56.9131158 65.8666508,55.3886717 65.8666508,55.3886717 L67.6656255,55.3886717 L68.8540532,55.356201 L69.44502,55.3432128 C71.4279076,55.3432128 72.4193365,56.1549722 72.4193365,57.7785155 C72.4193365,58.4409212 72.2656434,59.0015764 71.9582525,59.460498 C71.6508616,59.9194195 71.1876176,60.274429 70.5685064,60.525537 L72.4453131,63.1361816 C72.9085641,63.7596222 73.2018798,64.1189611 73.3252691,64.214209 C73.4486584,64.3094568 73.6921863,64.3679035 74.0558599,64.3895508 L74.1792486,64.3960449 L74.1792486,65 L71.3153326,65 L68.6527349,60.7917968 L67.827979,60.7917968 Z M67.827979,60.1488769 L68.1851567,60.1488769 C68.8648802,60.1488769 69.4038885,59.9475605 69.8021978,59.5449218 C70.2005071,59.1422831 70.3996587,58.5924513 70.3996587,57.8954101 C70.3996587,56.6485288 69.7848862,56.0250975 68.5553228,56.0250975 L67.827979,56.0250975 L67.827979,60.1488769 Z M81.7708991,65 L75.4390143,65 C75.4390143,65 75.4780768,63.6968453 75.4780768,63.1166992 L75.4780768,57.2654784 C75.4780768,56.6853323 75.4390143,55.3886717 75.4390143,55.3886717 L81.4916511,55.3886717 L81.4916511,56.5999985 L77.4847662,56.5 L77.4847662,59.6748046 L78.8225592,59.6748046 C79.3377636,59.6748046 79.6332441,59.6618165 79.7090094,59.6358398 C79.7847748,59.6098631 80.5305182,59.5 80.5305182,59.5 L80.5500031,60.4000015 C80.5500031,60.4000015 79.2663277,60.2333007 78.8290534,60.2333007 L77.4458014,60.2333007 L77.4458014,63.1166992 C77.4458014,63.8353877 77.5,63.6999969 77.5,63.6999969 L81.7708991,63.6999969 L81.7708991,65 Z" id="CADRE5" fill="#000000"></path>
            <path d="M83.5373054,64.9350586 L83.5373054,63.155664 L84.4205085,63.155664 L84.4270027,63.2790527 C84.4659677,63.8635283 84.5590495,64.2120437 84.7062507,64.3246094 C84.9746766,64.5367524 85.2798981,64.6428223 85.6219246,64.6428223 C86.1544468,64.6428223 86.5754793,64.4425883 86.8850349,64.0421142 C87.1945905,63.6416402 87.349366,63.0972202 87.349366,62.4088379 C87.349366,61.5559364 87.1047558,60.9173523 86.6155281,60.4930663 C86.1263004,60.0687804 85.3903051,59.8566406 84.4075203,59.8566406 C84.2040362,59.8566406 83.9745788,59.8696287 83.7191413,59.8956054 L83.7191413,55.3886717 L89.2066902,55.3886717 L89.2066902,56.8693358 L84.5049324,56.8693358 L84.3230964,59.2396972 L84.9465339,59.2267089 C86.4272054,59.2267089 87.5376924,59.4810602 88.2780281,59.9897704 C89.0183639,60.4984807 89.3885262,61.2615346 89.3885262,62.278955 C89.3885262,63.1967982 89.0529989,63.9198053 88.3819344,64.447998 C87.7108698,64.9761908 86.7908757,65.2402832 85.6219246,65.2402832 C85.0547668,65.2402832 84.3599007,65.1385427 83.5373054,64.9350586 L83.5373054,64.9350586 Z" id="Path" fill="#CC0002"></path>
            <circle id="Oval-1" fill="#000000" cx="10" cy="18" r="7"></circle>
            <circle id="Oval-1" fill="#000000" cx="24" cy="25" r="6"></circle>
            <circle id="Oval-1" fill="#000000" cx="37.5" cy="31.5" r="4.5"></circle>
            <circle id="Oval-1" fill="#000000" cx="51" cy="39" r="3"></circle>
            <circle id="Oval-1" fill="#000000" cx="63.5" cy="45.5" r="1.5"></circle>
            <circle id="Oval-1" fill="#CC0002" cx="66" cy="22" r="7"></circle>
            <circle id="Oval-1" fill="#CC0002" cx="24" cy="60" r="7"></circle>
            <circle id="Oval-1" fill="#CC0002" cx="30.5" cy="45.5" r="5.5"></circle>
            <circle id="Oval-1" fill="#CC0002" cx="8.5" cy="41.5" r="1.5"></circle>
            <circle id="Oval-1" fill="#CC0002" cx="52" cy="27" r="6"></circle>
            <circle id="Oval-1" fill="#CC0002" cx="23" cy="37" r="3"></circle>
            <circle id="Oval-1" fill="#CC0002" cx="51" cy="4" r="2"></circle>
            <circle id="Oval-1" fill="#CC0002" cx="44" cy="18" r="3"></circle>
        </g>
    </g>
</svg>