<?xml version="1.0" encoding="UTF-8"?>
<svg width="746px" height="394px" viewBox="0 0 746 394" version="1.1" xmlns="http://www.w3.org/2000/svg" xmlns:xlink="http://www.w3.org/1999/xlink">
    <!-- Generator: Sketch 39.1 (31720) - http://www.bohemiancoding.com/sketch -->
    <title>cisco</title>
    <desc>Created with Sketch.</desc>
    <defs>
        <polygon id="path-1" points="4.76548424 6.1610165 802.420712 6.1610165 802.420712 460.598007 4.76548424 460.598007"></polygon>
    </defs>
    <g id="Page-1" stroke="none" stroke-width="1" fill="none" fill-rule="evenodd">
        <g id="cisco" transform="translate(-21.000000, -21.000000)">
            <g id="svg3358">
                <g id="layer1" transform="translate(0.000000, 0.637820)">
                    <polygon id="path268" fill="#C4122E" points="265.00014 411.205 232.36536 411.205 232.36536 281.87491 265.00014 281.87491"></polygon>
                    <g id="g270" transform="translate(404.139838, 233.135302) scale(1, -1) translate(-404.139838, -233.135302) translate(0.986074, 0.546592)">
                        <g id="g272-Clipped">
                            <mask id="mask-2" fill="white">
                                <use xlink:href="#path-1"></use>
                            </mask>
                            <g id="path276"></g>
                            <g id="g272" mask="url(#mask-2)">
                                <g transform="translate(10.337276, 41.349104)">
                                    <g id="g278" transform="translate(413.447623, 2.068489)">
                                        <path d="M103.37276,103.37276 C102.039251,104.05502 91.5262417,110.27806 75.9169549,110.27806 C54.8185746,110.27806 40.1809918,95.5887912 40.1809918,75.7825704 C40.1809918,56.5655743 54.1880008,41.2560685 75.9169549,41.2560685 C91.2574725,41.2560685 101.935879,47.3447241 103.37276,48.1200198 L103.37276,13.407447 C99.2791987,12.2600093 88.1252779,8.80735915 73.6324169,8.80735915 C36.9247499,8.80735915 4.70346058,34.1130108 4.70346058,75.7825704 C4.70346058,114.402633 33.8545789,142.72677 73.6324169,142.72677 C88.9315854,142.72677 100.281914,138.995013 103.37276,138.085333 L103.37276,103.37276 L103.37276,103.37276 Z" id="path280" fill="#C4122E"></path>
                                    </g>
                                    <g id="g282" transform="translate(72.801300, 2.068489)">
                                        <path d="M103.37276,103.37276 C102.059926,104.05502 91.5675908,110.27806 75.958304,110.27806 C54.8185746,110.27806 40.1913291,95.5887912 40.1913291,75.7825704 C40.1913291,56.5655743 54.2086753,41.2560685 75.958304,41.2560685 C91.2988216,41.2560685 101.96689,47.3447241 103.37276,48.1200198 L103.37276,13.407447 C99.3205478,12.2600093 88.1873016,8.80735915 73.6117424,8.80735915 C36.9247499,8.80735915 4.74480968,34.1130108 4.74480968,75.7825704 C4.74480968,114.402633 33.895928,142.72677 73.6117424,142.72677 C88.9729345,142.72677 100.302589,138.995013 103.37276,138.085333 L103.37276,103.37276 L103.37276,103.37276 Z" id="path284" fill="#C4122E"></path>
                                    </g>
                                    <g id="g286" transform="translate(547.125142, 8.488971)">
                                        <path d="M72.360932,103.37276 C52.9992141,103.37276 38.6200631,88.1356152 38.6200631,69.363122 C38.6200631,50.5492796 52.9992141,35.3224721 72.360932,35.3224721 C91.7019754,35.3224721 106.122475,50.5492796 106.122475,69.363122 C106.122475,88.1356152 91.7019754,103.37276 72.360932,103.37276 M140.700664,69.363122 C140.700664,32.3660112 112.13877,2.38791076 72.360932,2.38791076 C32.583094,2.38791076 4.06254947,32.3660112 4.06254947,69.363122 C4.06254947,106.298209 32.583094,136.307321 72.360932,136.307321 C112.13877,136.307321 140.700664,106.298209 140.700664,69.363122" id="path288" fill="#C4122E"></path>
                                    </g>
                                    <g id="g290" transform="translate(294.740548, 9.730478)">
                                        <path d="M82.698208,103.37276 C82.212356,103.527819 68.4741162,107.321599 57.1858108,107.321599 C44.1091567,107.321599 36.9971108,102.938594 36.9971108,96.7258915 C36.9971108,88.8488872 46.5901029,86.0991718 51.9551492,84.4038585 L60.9589166,81.5404331 C82.1399951,74.8005291 91.7950109,60.2973309 91.7950109,44.5433223 C91.7950109,12.0532638 63.22278,1.13710036 38.2479212,1.13710036 C20.8916348,1.13710036 4.63109965,4.33131864 3.02882187,4.67244875 L3.02882187,34.4334664 C5.9025846,33.709857 19.589138,29.626633 33.8442416,29.626633 C50.0841022,29.626633 57.5476155,34.3714427 57.5476155,41.7005714 C57.5476155,48.2544044 51.086818,52.0378474 42.9927309,54.5808173 C41.0183112,55.2424029 38.051513,56.1727578 36.0254069,56.8343434 C17.8524757,62.5818689 2.69802904,73.260275 2.69802904,94.6687736 C2.69802904,118.857999 20.8089366,135.09786 50.8904097,135.09786 C66.778803,135.09786 81.7265041,131.242056 82.698208,130.983624 L82.698208,103.37276 L82.698208,103.37276 Z" id="path292" fill="#C4122E"></path>
                                    </g>
                                    <g id="g294" transform="translate(1.591941, 229.801780)">
                                        <path d="M41.349104,51.68638 C41.349104,60.5971119 34.0716617,67.8228678 25.1505925,67.8228678 C16.2295233,67.8228678 8.94174374,60.5971119 8.94174374,51.68638 L8.94174374,17.7387656 C8.94174374,8.77634732 16.2295233,1.54025412 25.1505925,1.54025412 C34.0716617,1.54025412 41.349104,8.77634732 41.349104,17.7387656 L41.349104,51.68638 L41.349104,51.68638 Z" id="path296" fill="#15495D"></path>
                                    </g>
                                    <g id="g298" transform="translate(90.588651, 222.674229)">
                                        <path d="M41.349104,103.37276 C41.349104,112.283492 34.0716617,119.529922 25.1505925,119.529922 C16.219186,119.529922 8.94174374,112.283492 8.94174374,103.37276 L8.94174374,24.8611488 C8.94174374,15.8987305 16.219186,8.67297456 25.1505925,8.67297456 C34.0716617,8.67297456 41.349104,15.8987305 41.349104,24.8611488 L41.349104,103.37276 L41.349104,103.37276 Z" id="path300" fill="#15495D"></path>
                                    </g>
                                    <g id="g302" transform="translate(179.586395, 190.602830)">
                                        <path d="M41.349104,196.408244 C41.349104,205.318976 34.0716617,212.555069 25.1505925,212.555069 C16.219186,212.555069 8.94174374,205.318976 8.94174374,196.408244 L8.94174374,24.6750778 C8.94174374,15.7126595 16.219186,8.47656632 25.1505925,8.47656632 C34.0716617,8.47656632 41.349104,15.7126595 41.349104,24.6750778 L41.349104,196.408244 L41.349104,196.408244 Z" id="path304" fill="#15495D"></path>
                                    </g>
                                    <g id="g306" transform="translate(268.584139, 222.674229)">
                                        <path d="M41.349104,103.37276 C41.349104,112.283492 34.0716617,119.529922 25.1505925,119.529922 C16.219186,119.529922 8.94174374,112.283492 8.94174374,103.37276 L8.94174374,24.8611488 C8.94174374,15.8987305 16.219186,8.67297456 25.1505925,8.67297456 C34.0716617,8.67297456 41.349104,15.8987305 41.349104,24.8611488 L41.349104,103.37276 L41.349104,103.37276 Z" id="path308" fill="#15495D"></path>
                                    </g>
                                    <g id="g310" transform="translate(357.480577, 229.801780)">
                                        <path d="M41.349104,51.68638 C41.349104,60.5971119 34.1233481,67.8228678 25.243628,67.8228678 C16.3225588,67.8228678 9.0451165,60.5971119 9.0451165,51.68638 L9.0451165,17.7387656 C9.0451165,8.77634732 16.3225588,1.54025412 25.243628,1.54025412 C34.1233481,1.54025412 41.349104,8.77634732 41.349104,17.7387656 L41.349104,51.68638 L41.349104,51.68638 Z" id="path312" fill="#15495D"></path>
                                    </g>
                                    <g id="g314" transform="translate(446.518637, 222.674229)">
                                        <path d="M41.349104,103.37276 C41.349104,112.283492 34.1233481,119.529922 25.2022789,119.529922 C16.291547,119.529922 9.0451165,112.283492 9.0451165,103.37276 L9.0451165,24.8611488 C9.0451165,15.8987305 16.291547,8.67297456 25.2022789,8.67297456 C34.1233481,8.67297456 41.349104,15.8987305 41.349104,24.8611488 L41.349104,103.37276 L41.349104,103.37276 Z" id="path316" fill="#15495D"></path>
                                    </g>
                                    <g id="g318" transform="translate(535.576337, 190.602830)">
                                        <path d="M41.349104,196.408244 C41.349104,205.318976 34.1233481,212.555069 25.2022789,212.555069 C16.2708724,212.555069 9.0451165,205.318976 9.0451165,196.408244 L9.0451165,24.6750778 C9.0451165,15.7126595 16.2708724,8.47656632 25.2022789,8.47656632 C34.1233481,8.47656632 41.349104,15.7126595 41.349104,24.6750778 L41.349104,196.408244 L41.349104,196.408244 Z" id="path320" fill="#15495D"></path>
                                    </g>
                                    <g id="g322" transform="translate(624.614396, 222.674229)">
                                        <path d="M41.349104,103.37276 C41.349104,112.283492 34.1233481,119.529922 24.9955334,119.529922 C16.0744642,119.529922 8.84870826,112.283492 8.84870826,103.37276 L8.84870826,24.8611488 C8.84870826,15.8987305 16.0744642,8.67297456 24.9955334,8.67297456 C34.1233481,8.67297456 41.349104,15.8987305 41.349104,24.8611488 L41.349104,103.37276 L41.349104,103.37276 Z" id="path324" fill="#15495D"></path>
                                    </g>
                                    <g id="g326" transform="translate(713.470520, 229.801780)">
                                        <path d="M41.349104,51.68638 C41.349104,60.5971119 34.1026735,67.8228678 25.1919416,67.8228678 C16.2708724,67.8228678 9.02444195,60.5971119 9.02444195,51.68638 L9.02444195,17.7387656 C9.02444195,8.77634732 16.2708724,1.54025412 25.1919416,1.54025412 C34.1026735,1.54025412 41.349104,8.77634732 41.349104,17.7387656 L41.349104,51.68638 L41.349104,51.68638 Z" id="path328" fill="#15495D"></path>
                                    </g>
                                    <g id="g330" transform="translate(715.469749, 9.528901)">
                                        <polygon id="path332" fill="#C4122E" points="20.674552 20.674552 20.674552 18.6484459 14.906352 18.6484459 14.906352 3.64905843 12.5391158 3.64905843 12.5391158 18.6484459 6.73990395 18.6484459 6.73990395 20.674552"></polygon>
                                    </g>
                                    <g id="g334" transform="translate(737.354796, 9.528901)">
                                        <polygon id="path336" fill="#C4122E" points="0 20.674552 3.71108208 20.674552 8.80735915 6.70889212 8.89005736 6.70889212 13.820938 20.674552 17.4596592 20.674552 17.4596592 3.64905843 15.0303993 3.64905843 15.0303993 17.604381 14.9477011 17.604381 9.7790631 3.64905843 7.5358742 3.64905843 2.49128352 17.604381 2.37757348 17.604381 2.37757348 3.64905843 2.00841932e-15 3.64905843"></polygon>
                                    </g>
                                </g>
                            </g>
                        </g>
                    </g>
                </g>
            </g>
        </g>
    </g>
</svg>