<?xml version="1.0" encoding="UTF-8"?>
<svg width="113px" height="92px" viewBox="0 0 113 92" version="1.1" xmlns="http://www.w3.org/2000/svg" xmlns:xlink="http://www.w3.org/1999/xlink">
    <!-- Generator: Sketch 39.1 (31720) - http://www.bohemiancoding.com/sketch -->
    <title>initialstate</title>
    <desc>Created with Sketch.</desc>
    <defs></defs>
    <g id="Page-1" stroke="none" stroke-width="1" fill="none" fill-rule="evenodd">
        <g id="initialstate">
            <g id="gold-initialstate">
                <g id="Page-1">
                    <g id="gold-initialstate">
                        <g id="initialstate-logo">
                            <g id="Page-1">
                                <g id="service-logos"></g>
                            </g>
                        </g>
                    </g>
                </g>
            </g>
        </g>
        <path d="M66.151769,90.952124 C65.800158,90.856702 65.468116,90.683282 65.134968,90.528394 C64.970192,90.45178 64.822702,90.338172 64.670856,90.243441 L64.670856,88.167452 C64.812952,88.262321 64.911624,88.330361 65.01244,88.395013 C66.22382,89.172083 67.526127,89.59201 68.97627,89.338035 C69.258942,89.288526 69.554405,89.153759 69.781413,88.977643 C70.267929,88.600241 70.210053,87.88319 69.672784,87.586205 C69.334035,87.398956 68.956494,87.277604 68.588842,87.148023 C67.840468,86.884229 67.068031,86.679417 66.339779,86.369709 C65.07564,85.831956 64.54819,84.866116 64.782943,83.443424 C64.933544,82.530758 65.52696,81.948889 66.343582,81.603156 C67.642847,81.053164 68.975095,81.117124 70.300981,81.503446 C70.727339,81.627634 71.132953,81.82318 71.541817,81.98367 L71.541817,83.959327 C71.371786,83.874207 71.241652,83.809694 71.112071,83.744143 C70.047974,83.205974 68.93091,82.95027 67.738891,83.137796 C67.539127,83.169258 67.331825,83.238473 67.159512,83.34247 C66.661103,83.643396 66.660619,84.304507 67.173549,84.572312 C67.526473,84.756587 67.916391,84.879392 68.300708,84.992585 C69.251819,85.272629 70.176517,85.590426 71.039121,86.108196 C72.576596,87.030889 72.495487,89.3287 71.304506,90.311481 C70.680389,90.826554 69.967808,91.149457 69.17562,91.225599 C67.875591,91.350554 66.682054,91.096019 66.151769,90.952124 L66.151769,90.952124 L66.151769,90.952124 L66.151769,90.952124 Z M14.32077,91.071057 L12.673766,91.071057 C11.083947,89.06615 9.490809,87.056957 7.897671,85.047833 C7.868975,85.054886 7.840348,85.062008 7.811653,85.069061 L7.811653,91.064488 L5.843187,91.064488 L5.843187,81.432225 L7.559544,81.432225 C9.121082,83.409265 10.709795,85.42081 12.298577,87.432354 C12.322916,87.425509 12.347325,87.418732 12.371665,87.411887 L12.371665,81.434576 L14.32077,81.434576 L14.32077,91.071057 L14.32077,91.071057 L14.32077,91.071057 L14.32077,91.071057 Z M110.84968,85.045122 L110.84968,86.808361 L106.79762,86.808361 L106.79762,89.267976 L111.99558,89.267976 L111.99558,91.05424 L104.76768,91.05424 L104.76768,81.429376 L111.84387,81.429376 L111.84387,83.213982 L106.79202,83.213982 L106.79202,85.045122 L110.84968,85.045122 L110.84968,85.045122 L110.84968,85.045122 L110.84968,85.045122 Z M101.90443,81.437252 L101.90443,83.207751 L98.88099,83.207751 L98.88099,91.059004 L96.84698,91.059004 L96.84698,83.227597 L93.81006,83.227597 L93.81006,81.437252 L101.90443,81.437252 L101.90443,81.437252 L101.90443,81.437252 L101.90443,81.437252 Z M25.843867,91.059703 L25.843867,83.226359 L22.826654,83.226359 L22.826654,81.438919 L30.90457,81.438919 L30.90457,83.210109 L27.878299,83.210109 L27.878299,91.059703 L25.843867,91.059703 L25.843867,91.059703 L25.843867,91.059703 L25.843867,91.059703 Z M82.35723,81.435952 L82.35723,83.213919 L79.328812,83.213919 L79.328812,91.061577 L77.309385,91.061577 L77.309385,83.222217 L74.279657,83.222217 L74.279657,81.435952 L82.35723,81.435952 L82.35723,81.435952 L82.35723,81.435952 L82.35723,81.435952 Z M51.375448,91.066707 L51.375448,81.439631 L53.377242,81.439631 L53.377242,89.268135 L58.244334,89.268135 L58.244334,91.066707 L51.375448,91.066707 L51.375448,91.066707 L51.375448,91.066707 L51.375448,91.066707 Z M0.302682,91.064142 L2.263196,91.064142 L2.263196,81.430289 L0.302682,81.430289 L0.302682,91.064142 L0.302682,91.064142 L0.302682,91.064142 L0.302682,91.064142 Z M17.932374,91.056467 L19.889845,91.056467 L19.889845,81.428146 L17.932374,81.428146 L17.932374,91.056467 L17.932374,91.056467 L17.932374,91.056467 L17.932374,91.056467 Z M33.836649,91.060685 L35.797371,91.060685 L35.797371,81.430082 L33.836649,81.430082 L33.836649,91.060685 L33.836649,91.060685 L33.836649,91.060685 L33.836649,91.060685 Z M41.570706,88.88408 C41.257817,89.609429 40.944445,90.336021 40.628791,91.067731 L38.510484,91.067731 C39.898948,87.814866 41.270125,84.602383 42.647042,81.376486 L44.592206,81.376486 C45.961585,84.583714 47.333247,87.796404 48.724961,91.055976 L46.57782,91.055976 C46.273022,90.34743 45.960548,89.621183 45.643511,88.88408 L41.570706,88.88408 L41.570706,88.88408 L41.570706,88.88408 L41.570706,88.88408 Z M44.975001,87.160601 C44.510543,86.057159 44.071739,85.014774 43.604584,83.90504 C43.129962,85.026321 42.686041,86.07493 42.226423,87.160601 L44.975001,87.160601 L44.975001,87.160601 L44.975001,87.160601 L44.975001,87.160601 Z M93.19467,91.061992 L91.04801,91.061992 C90.74266,90.352547 90.42617,89.617311 90.10845,88.879171 L86.04117,88.879171 C85.73167,89.596636 85.41864,90.322261 85.09905,91.063236 L82.98109,91.063236 C84.36824,87.81293 85.74108,84.59616 87.11626,81.373928 L89.05915,81.373928 C90.43371,84.594086 91.80447,87.805324 93.19467,91.061992 L93.19467,91.061992 L93.19467,91.061992 L93.19467,91.061992 Z M89.44236,87.159771 C88.98212,86.066287 88.54476,85.027289 88.07318,83.906838 C87.59427,85.036279 87.15312,86.076728 86.69392,87.159771 L89.44236,87.159771 L89.44236,87.159771 L89.44236,87.159771 L89.44236,87.159771 Z M0,21.08552 C0,20.567866 0.417955,20.148226 0.937294,20.148226 L13.822453,20.148226 C14.340106,20.148226 14.759747,20.566181 14.759747,21.08552 L14.759747,33.970678 C14.759747,34.488331 14.341792,34.907972 13.822453,34.907972 L0.937294,34.907972 C0.419641,34.907972 0,34.490017 0,33.970678 L0,21.08552 L0,21.08552 L0,21.08552 L0,21.08552 Z M0.164,40.529934 C0.164,40.012814 0.585082,39.593606 1.099233,39.593606 L13.824514,39.593606 C14.341029,39.593606 14.759747,40.012521 14.759747,40.532116 L14.759747,49.199156 C14.759747,53.371872 19.626238,59.903932 26.071494,59.903932 C32.51675,59.903932 36.104233,54.333337 36.104233,54.333337 L45.623465,40.175961 C45.839721,39.854335 46.328441,39.593606 46.716859,39.593606 L61.767033,39.593606 C62.801873,39.593606 63.169199,40.288033 62.587802,41.144177 L46.909189,64.231926 C46.909189,64.231926 39.912869,74.519218 26.00806,74.519217 C12.103251,74.519215 0.164,63.518356 0.164,48.304267 L0.164,40.529934 L0.164,40.529934 L0.164,40.529934 L0.164,40.529934 Z M113,53.433697 C113,53.95135 112.58204,54.370991 112.06271,54.370991 L99.17755,54.370991 C98.65989,54.370991 98.24025,53.953036 98.24025,53.433697 L98.24025,40.548539 C98.24025,40.030885 98.65821,39.611244 99.17755,39.611244 L112.06271,39.611244 C112.58036,39.611244 113,40.0292 113,40.548539 L113,53.433697 L113,53.433697 L113,53.433697 L113,53.433697 Z M112.836,33.989283 C112.836,34.506402 112.41492,34.925611 111.90077,34.925611 L99.17549,34.925611 C98.65897,34.925611 98.24025,34.506696 98.24025,33.987101 L98.24025,25.320061 C98.24025,21.147345 93.37376,14.615285 86.92851,14.615285 C80.48325,14.615285 76.895767,20.185879 76.895767,20.185879 L67.376535,34.343256 C67.160279,34.664881 66.671559,34.925611 66.283141,34.925611 L51.232967,34.925611 C50.198127,34.925611 49.830801,34.231183 50.412198,33.37504 L66.090811,10.28729 C66.090811,10.28729 73.087131,-9.99999997e-07 86.99194,0 C100.89675,9.99999997e-07 112.836,11.00086 112.836,26.21495 L112.836,33.989283 L112.836,33.989283 L112.836,33.989283 L112.836,33.989283 Z" id="initial-state" fill="#000000"></path>
    </g>
</svg>