<?xml version="1.0" encoding="UTF-8"?>
<svg width="62px" height="33px" viewBox="0 0 62 33" version="1.1" xmlns="http://www.w3.org/2000/svg" xmlns:xlink="http://www.w3.org/1999/xlink">
    <!-- Generator: Sketch 39.1 (31720) - http://www.bohemiancoding.com/sketch -->
    <title>ornl</title>
    <desc>Created with Sketch.</desc>
    <defs></defs>
    <g id="Page-1" stroke="none" stroke-width="1" fill="none" fill-rule="evenodd">
        <g id="ornl" transform="translate(-1.000000, 0.000000)">
            <g id="svg2784">
                <g id="layer1" transform="translate(0.775430, 0.095750)">
                    <g id="g2795" transform="translate(0.284030, 0.787130)">
                        <path d="M15.4301645,24.4416682 C15.738937,24.4564723 15.8721744,24.6140309 15.8721744,24.6140309 C15.8721744,24.6140309 15.8108429,24.4564723 15.8203598,24.8847355 C15.8298768,25.3129987 15.3445118,25.1173723 14.371667,24.700741 C12.6332357,23.9573606 11.622323,21.819217 11.1887726,20.8854974 C11.1887726,20.8854974 10.7287862,20.0881877 10.0700011,19.519285 C9.6914376,19.1914786 8.99141232,19.007484 8.99141232,19.007484 C8.99141232,19.007484 8.44577328,18.7410091 7.6082808,18.4470408 C6.81097104,18.1678766 3.91464288,18.3317798 3.91464288,18.3317798 L4.86316656,18.0187776 C4.86316656,18.0187776 3.85225392,17.4657365 3.07820784,17.1337003 C2.72608032,16.9835438 4.7690544,16.7054371 4.7690544,16.7054371 L4.73944608,16.0001246 C4.73944608,16.0001246 5.37813984,16.346965 6.13209456,16.4812598 C6.88816416,16.6155547 7.55117904,17.0459328 8.0524056,16.628244 C8.5546896,16.2126701 8.92690848,15.6553992 8.4277968,15.1774363 C7.92868512,14.6994734 7.37247168,14.3272546 6.45355632,14.2416019 C5.53464096,14.1559493 2.29781712,14.3970456 2.29781712,14.3970456 L0.4388376,13.2486658 C0.4388376,13.2486658 0.7349208,13.3396056 1.28584704,13.0879349 C1.83677328,12.8362642 2.3157936,12.336095 2.3157936,12.336095 C2.3157936,12.336095 2.45537568,12.2060299 2.03980176,11.7037459 C1.62105552,11.2014619 0.22311984,10.0953797 0.22311984,10.0953797 L0.95275344,10.1471942 C0.95275344,10.1471942 0.69050832,9.86803008 0.3806784,9.42284784 C0.07296336,8.97872304 0,8.73128208 0,8.73128208 L0.9834192,9.33508032 C0.9834192,9.33508032 1.5650112,9.78872208 1.41802704,9.29595504 L1.27210032,8.80213056 C1.27210032,8.80213056 2.23965792,9.05274384 3.15011376,9.40910112 C4.05845472,9.76651584 5.16242208,10.7806008 5.66576352,10.3639694 C6.16804752,9.94733808 6.84480912,9.21135984 5.8476432,8.25543408 C4.84941984,7.29845088 4.25936832,7.11551376 3.53925168,6.79299456 C2.81702016,6.46941792 2.71127616,6.41231616 2.0144232,6.1701624 C1.31757024,5.92906608 1.18116048,5.1655944 1.18116048,5.1655944 C1.18116048,5.1655944 2.2364856,6.01577616 2.44374384,5.50714752 C2.64994464,4.99851888 2.52939648,4.58823216 2.21956656,4.14410736 C1.90973664,3.69892512 1.6813296,3.2304792 1.6813296,3.2304792 C1.6813296,3.2304792 1.70459328,3.31295952 2.2946448,3.49589664 C2.8868112,3.67883376 2.8445136,4.13776272 2.8868112,3.67883376 C2.93016624,3.21884736 2.7017592,2.75040144 2.7017592,2.75040144 C2.7017592,2.75040144 3.093012,3.17020512 3.674604,3.62490432 C4.256196,4.07854608 4.7690544,4.90863648 5.13175632,4.62312768 C5.49445824,4.33761888 6.03481008,4.3566528 5.57905344,3.41870352 C5.12223936,2.48075424 4.92344064,1.2001944 4.92344064,1.2001944 L5.47965408,1.57135584 L5.27979792,0.28973856 C5.27979792,0.28973856 5.55156,0.29925552 5.9428128,0.7190592 L6.33618048,1.13992032 L6.56775984,0.713772 C6.56775984,0.713772 7.22125776,1.41379728 7.34286336,1.82514144 C7.46446896,2.23542816 8.19938976,2.91218976 8.21842368,2.37078048 C8.2374576,1.82831376 8.05875024,1.52482848 8.05875024,1.52482848 L8.53248336,1.92031104 C8.53248336,1.92031104 8.88566832,1.90550688 8.77357968,1.22345808 C8.66149104,0.54140928 8.67946752,0 8.67946752,0 L9.7654584,1.55655168 L9.84159408,0.90834096 C9.84159408,0.90834096 10.3407058,1.38630384 10.089035,2.35386144 C9.84159408,3.3203616 9.74536704,4.51103904 9.52859184,5.28931488 C9.31287408,6.0697056 9.60895728,7.67912928 10.2518808,7.13137536 C10.8948043,6.58467888 11.1591643,5.9692488 11.5409002,5.14233072 C11.9215786,4.3143552 12.8923085,3.67037424 12.8923085,3.67037424 C12.8923085,3.67037424 12.4206902,4.79231808 12.6755333,4.44865008 C12.9314338,4.10498208 13.0625563,4.2456216 13.4834174,3.85331136 C13.9042786,3.46100112 15.3677755,2.67109344 15.3677755,2.67109344 C15.3677755,2.67109344 14.8654915,3.08666736 14.6328547,3.51281568 C14.4023328,3.938964 14.5049045,4.89171744 14.8200216,4.441248 C15.1330238,3.99077856 15.544368,3.86917296 15.544368,3.86917296 C15.544368,3.86917296 15.2112744,4.86210912 14.7576326,5.44264368 C14.3039909,6.02317824 13.3089398,6.58573632 13.8080515,7.0636992 C14.3071632,7.54271952 14.6254526,7.71613968 15.0378542,7.59453408 C15.448141,7.47292848 15.8838062,7.4338032 15.8838062,7.4338032 L15.544368,7.80179232 L16.4717429,7.61674032 L15.1287941,8.81799216 L15.8742893,9.22299168 C15.8742893,9.22299168 14.707933,9.2103024 14.0502053,9.40487136 C13.3924776,9.59838288 12.8563555,10.204296 12.107688,10.6938907 C11.357963,11.1834854 10.3618546,14.1591216 11.7196075,13.3110547 C13.0773605,12.4629878 14.5123066,10.6198699 14.5123066,10.6198699 C14.5123066,10.6198699 14.258521,11.5927147 14.751288,11.446788 C15.244055,11.3019187 16.3691712,10.5955488 16.3691712,10.5955488 C16.3691712,10.5955488 16.169315,11.2955741 15.5517701,12.0960562 C15.1605173,12.6046848 14.6709226,13.5648403 14.9522016,13.3036526 C15.2324232,13.0414075 16.4516515,12.9853632 16.4516515,12.9853632 C16.4516515,12.9853632 15.808728,13.5331171 15.059003,14.0227118 C14.3103355,14.5123066 13.059384,15.4174752 12.8278046,15.8436235 C12.5951678,16.2697718 13.3131696,17.4879427 14.2363147,16.6790011 C15.1584024,15.8700595 15.9419654,15.1922405 16.0910645,14.7904133 C16.241221,14.3885861 16.883087,13.8408322 16.883087,13.8408322 L16.9613376,14.7111053 L18.2429549,14.5112491 L17.4815981,16.1661427 C17.4815981,16.1661427 17.4456451,16.4537664 17.9881118,16.3744584 C18.5876803,16.2856334 18.6130589,16.3681138 18.6130589,16.3681138 C18.6130589,16.3681138 17.7142349,17.2595357 16.7847451,17.4445877 C15.8563128,17.6296397 11.3748821,18.6056568 11.5853126,20.7152496 C11.6276102,21.1488 12.7601285,23.8896845 15.0241075,24.3961982 L15.4301645,24.4416682 L15.4301645,24.4416682 Z" id="path2797" fill="#31875A"></path>
                        <path d="M16.990947,24.885793 L61.2025102,24.885793" id="line2799" stroke="#31875A" stroke-width="0.643980992"></path>
                        <path d="M17.3124077,27.7281917 C17.3124077,28.6100966 17.3536478,29.3355005 17.3642222,29.4962314 C17.3747966,29.7553042 17.4371856,29.8800821 17.623295,29.8800821 L17.7586474,29.8800821 C17.7998875,29.8800821 17.7998875,29.9012309 17.7998875,29.9266094 L17.7998875,30.0461002 C17.7998875,30.0767659 17.7998875,30.0873403 17.7586474,30.0873403 C17.7068328,30.0873403 17.394888,30.0714787 17.1982042,30.0714787 C17.0639093,30.0714787 16.7107243,30.0873403 16.6589098,30.0873403 C16.6388184,30.0873403 16.628244,30.0767659 16.628244,30.040813 L16.628244,29.9107478 C16.628244,29.9012309 16.6398758,29.8800821 16.6589098,29.8800821 L16.8355022,29.8800821 C16.9697971,29.8800821 17.0427605,29.7658786 17.0691965,29.449704 C17.0734262,29.3566493 17.1051494,28.630188 17.1051494,27.801155 L17.1051494,27.1423699 C17.1051494,26.8314826 16.928557,26.5925011 16.7001499,26.5925011 L16.5341318,26.5925011 C16.5140405,26.5872139 16.5034661,26.577697 16.5034661,26.5565482 L16.5034661,26.4169661 C16.5034661,26.3958173 16.5150979,26.3852429 16.5341318,26.3852429 C16.5605678,26.3852429 16.601808,26.3905301 16.6948627,26.3958173 C16.7889749,26.4011045 16.928557,26.4011045 17.156964,26.4011045 C17.2447315,26.4011045 17.3229821,26.3958173 17.385371,26.3905301 C17.4519898,26.3905301 17.4985171,26.3852429 17.5312978,26.3852429 C17.5936867,26.3852429 17.6243525,26.4011045 17.6560757,26.4317702 C17.7078902,26.4835848 18.7240901,27.7588574 18.8266618,27.9047842 C18.8985677,27.9872645 19.7075093,28.9939474 19.791047,29.0975765 L19.8121958,29.0975765 L19.8121958,28.5582821 C19.8121958,28.101468 19.8121958,27.8423952 19.8016214,27.5833224 C19.791047,27.3855811 19.7709557,26.8780099 19.7445197,26.7902424 C19.7075093,26.6654645 19.5943632,26.5925011 19.4695853,26.5925011 L19.3035672,26.5925011 C19.2729014,26.5925011 19.2729014,26.5724098 19.2729014,26.5459738 L19.2729014,26.426483 C19.2729014,26.3958173 19.2729014,26.3852429 19.3141416,26.3852429 C19.377588,26.3852429 19.5414912,26.4011045 19.8946762,26.4011045 C20.2055635,26.4011045 20.3303414,26.3852429 20.3937878,26.3852429 C20.435028,26.3852429 20.4456024,26.4063917 20.4456024,26.4211958 L20.4456024,26.5406866 C20.4456024,26.5724098 20.435028,26.5925011 20.4138792,26.5925011 L20.2690099,26.5925011 C20.1653808,26.5925011 20.1135662,26.6760389 20.0977046,26.8674355 C20.0723261,27.2206205 20.0205115,28.0908936 20.0205115,28.6196136 L20.0205115,29.9889984 C20.0205115,30.0619618 20.0205115,30.1338677 19.9581226,30.1338677 C19.8851592,30.1338677 19.8227702,30.0926275 19.7815301,30.0513874 C19.7402899,29.9995728 19.4600683,29.678111 19.1386066,29.2942603 C18.7759046,28.8480206 18.3709051,28.3605408 18.3085162,28.2780605 C18.2376677,28.2050971 17.4065198,27.1677485 17.3451883,27.0958426 L17.3145226,27.0958426 L17.3145226,27.7281917 L17.3124077,27.7281917 L17.3124077,27.7281917 Z" id="path2801" fill="#31875A"></path>
                        <path d="M22.0137859,29.8176931 C21.9006398,29.942471 21.7652875,30.0302386 21.562259,30.0979147 C21.4438258,30.1338677 21.333852,30.1338677 21.2312803,30.1338677 C21.0398837,30.1338677 20.8738656,29.978424 20.8738656,29.6886854 C20.8738656,29.449704 20.9774947,29.2160098 21.350771,29.0510491 C21.6722328,28.894548 21.8678592,28.8120677 21.9831202,28.7295874 L21.9831202,28.4599402 C21.9725458,28.3552536 21.9609139,28.2315331 21.9006398,28.1691442 C21.8488253,28.1120424 21.7547131,28.0908936 21.6405096,28.0908936 C21.5474549,28.0908936 21.422677,28.1226168 21.3401966,28.1850058 C21.2682907,28.2368203 21.3190478,28.3140134 21.3190478,28.4387914 C21.3190478,28.6259582 21.2259931,28.7391043 21.0081605,28.7391043 C20.9151058,28.7391043 20.8326254,28.6777728 20.8326254,28.5635693 C20.8326254,28.4176426 20.9151058,28.2516245 21.0705494,28.1384784 C21.2883821,27.9724603 21.5696611,27.8476824 21.9101568,27.8476824 C22.2009528,27.8476824 22.2940075,27.9100714 22.3870622,27.9925517 C22.5012658,28.0961808 22.5118402,28.2421075 22.5118402,28.3816896 L22.5224146,29.2012056 L22.5224146,29.449704 C22.5224146,29.7299256 22.5636547,29.8124059 22.6567094,29.8124059 C22.7296728,29.8124059 22.8036936,29.7711658 22.8227275,29.7299256 C22.8438763,29.6992598 22.8544507,29.6992598 22.8745421,29.7087768 L22.9379885,29.7510744 C22.9591373,29.7605914 22.9686542,29.7817402 22.9485629,29.8335547 C22.8967483,29.9266094 22.7719704,30.1338677 22.4716574,30.1338677 C22.2749736,30.1338677 22.1089555,30.040813 22.0359922,29.8176931 L22.0137859,29.8176931 L22.0137859,29.8176931 L22.0137859,29.8176931 Z M21.9831202,28.920984 C21.7547131,29.0658533 21.41316,29.1546782 21.41316,29.5332418 C21.41316,29.7457872 21.5263061,29.8494163 21.651084,29.8494163 C21.7980682,29.8388419 21.9831202,29.6939726 21.9831202,29.5998605 L21.9831202,28.920984 L21.9831202,28.920984 Z" id="path2803" fill="#31875A"></path>
                        <path d="M23.174855,28.1955802 C23.1336149,28.1955802 23.1029491,28.1744314 23.1029491,28.1226168 C23.1029491,28.0813766 23.1336149,28.0507109 23.2023485,28.0242749 C23.3472178,27.9724603 23.7976872,27.5886096 23.9118907,27.370777 C23.9330395,27.3295368 23.9637053,27.3189624 23.9954285,27.3189624 C24.0366686,27.3189624 24.0578174,27.3506856 24.0578174,27.3919258 L24.0366686,27.9047842 L24.7197749,27.9047842 C24.7514981,27.9047842 24.761015,27.925933 24.7567853,27.9470818 L24.7049707,28.1649144 C24.6996835,28.1850058 24.6827645,28.1955802 24.6520987,28.1955802 L24.0250368,28.1955802 C24.0144624,28.4134128 24.0091752,28.6619112 24.0091752,28.8903182 L24.0091752,29.3566493 C24.0091752,29.7616488 24.1804805,29.8441291 24.2841096,29.8441291 C24.3983131,29.8441291 24.5135741,29.8187506 24.58548,29.7817402 C24.621433,29.766936 24.6372946,29.766936 24.6489264,29.7923146 L24.6785347,29.8547035 C24.6901666,29.8853693 24.6785347,29.9065181 24.6573859,29.9276669 C24.58548,29.9794814 24.3676474,30.1349251 24.0049454,30.1349251 C23.6930006,30.1349251 23.4603638,29.8853693 23.4603638,29.6685941 C23.4603638,29.4814272 23.475168,29.0669107 23.475168,28.8691694 L23.475168,28.1955802 L23.174855,28.1955802 L23.174855,28.1955802 Z" id="path2805" fill="#31875A"></path>
                        <path d="M25.3003094,28.594235 C25.3003094,28.4387914 25.2696437,28.3351622 25.0306622,28.2727733 C24.9841349,28.2621989 24.9788477,28.2473947 24.9788477,28.2262459 L24.9788477,28.1691442 C24.9788477,28.1479954 24.9894221,28.1384784 25.0158581,28.127904 C25.0867066,28.0961808 25.6016798,27.9153586 25.6894474,27.8794056 C25.7412619,27.8582568 25.7825021,27.8476824 25.8142253,27.8476824 C25.8438336,27.8476824 25.8607526,27.8688312 25.8554654,27.9100714 C25.8438336,27.9925517 25.8438336,28.3245878 25.8438336,28.7549659 L25.8438336,29.3154091 C25.8438336,29.512093 25.8438336,29.6992598 25.8554654,29.7605914 C25.8660398,29.8547035 25.8850738,29.8959437 25.9379458,29.8959437 L26.145204,29.8959437 C26.1864442,29.8959437 26.1970186,29.9065181 26.1970186,29.9318966 L26.1970186,30.0355258 C26.1970186,30.067249 26.1864442,30.0873403 26.1557784,30.0873403 C26.1145382,30.0873403 25.8755568,30.0725362 25.527659,30.0725362 C25.2284035,30.0725362 25.0296048,30.0873403 24.9682733,30.0873403 C24.9428947,30.0873403 24.9270331,30.0767659 24.9270331,30.0355258 L24.9270331,29.9371838 C24.9270331,29.9065181 24.9481819,29.8959437 24.9788477,29.8959437 L25.2072547,29.8959437 C25.2590693,29.8959437 25.2855053,29.8747949 25.2907925,29.7923146 C25.2950222,29.6368709 25.3003094,29.4708528 25.3003094,29.3259835 L25.3003094,28.594235 L25.3003094,28.594235 Z M25.4769019,27.3136752 C25.316171,27.3136752 25.1607274,27.1994717 25.1607274,27.0228792 C25.1607274,26.8727227 25.3003094,26.7331406 25.5075677,26.7331406 C25.7158834,26.7331406 25.8142253,26.8832971 25.8142253,27.0027878 C25.8142253,27.1529443 25.7095387,27.3136752 25.4769019,27.3136752 L25.4769019,27.3136752 Z" id="path2807" fill="#31875A"></path>
                        <path d="M28.4419637,28.15434 C28.6841174,28.3975512 28.7993784,28.6671984 28.7993784,28.973856 C28.7993784,29.2635946 28.6756579,29.5438162 28.4779166,29.7616488 C28.2653712,30.0006302 27.9544838,30.1349251 27.6065861,30.1349251 C27.2808946,30.1349251 27.000673,30.0418704 26.7669787,29.7616488 C26.5385717,29.4920016 26.4867571,29.274169 26.4867571,28.9579944 C26.4867571,28.709496 26.6104776,28.3457366 26.921365,28.0972382 C27.176208,27.88998 27.4447978,27.8487398 27.6573432,27.8487398 C28.0062984,27.8476824 28.2653712,27.9819773 28.4419637,28.15434 M28.1680867,28.956937 C28.1680867,28.3869768 27.8677738,28.0549406 27.6277349,28.0549406 C27.49344,28.0549406 27.3887534,28.0961808 27.3009859,28.1945227 C27.140255,28.3764024 27.0778661,28.594235 27.0778661,28.9727986 C27.0778661,29.2731115 27.0990149,29.4708528 27.238597,29.6929152 C27.3274219,29.8335547 27.440568,29.916035 27.6488837,29.916035 C27.9914942,29.9170925 28.1680867,29.485657 28.1680867,28.956937" id="path2809" fill="#31875A"></path>
                        <path d="M29.836727,27.88998 C29.8779672,27.8688312 29.9096904,27.8487398 29.9403562,27.8487398 C29.9710219,27.8487398 29.9921707,27.8688312 30.0038026,27.9111288 L30.0450427,28.180776 L30.074651,28.180776 C30.1380974,28.1078126 30.2311522,28.0242749 30.3347813,27.9724603 C30.4585018,27.9005544 30.5938541,27.8487398 30.7503552,27.8487398 C30.9269477,27.8487398 31.0919083,27.8794056 31.2071693,27.9724603 C31.4345189,28.1384784 31.4916206,28.2949795 31.4916206,28.507525 L31.4916206,29.2540776 C31.4916206,29.4200957 31.4863334,29.6474453 31.4863334,29.7510744 C31.4863334,29.8652779 31.5497798,29.8970011 31.6111114,29.8970011 L31.7559806,29.8970011 C31.802508,29.8970011 31.819427,29.9075755 31.819427,29.9329541 L31.819427,30.0524448 C31.819427,30.0778234 31.8088526,30.0883978 31.7781869,30.0883978 C31.7369467,30.0883978 31.5804456,30.0725362 31.2177437,30.0725362 C30.9068563,30.0725362 30.7408382,30.0883978 30.7112299,30.0883978 C30.6795067,30.0883978 30.6699898,30.067249 30.6699898,30.0260088 L30.6699898,29.9382413 C30.6699898,29.9075755 30.6795067,29.8970011 30.7313213,29.8970011 L30.8349504,29.8970011 C30.877248,29.8970011 30.9184882,29.8652779 30.93012,29.7722232 C30.9459816,29.6368709 30.9502114,29.4920016 30.9502114,29.2847434 L30.9502114,28.6883472 C30.9502114,28.481089 30.939637,28.3467941 30.8159165,28.243165 C30.7122874,28.1490528 30.6192326,28.1490528 30.5050291,28.1490528 C30.4214914,28.1490528 30.2977709,28.1702016 30.172993,28.2844051 C30.0894552,28.3668854 30.0640766,28.5117547 30.0640766,28.6523942 L30.0640766,29.7204086 C30.0640766,29.8346122 30.0883978,29.8970011 30.1624186,29.8970011 L30.2554733,29.8970011 C30.2977709,29.8970011 30.3072878,29.9075755 30.3072878,29.9435285 L30.3072878,30.0365832 C30.3072878,30.067249 30.2977709,30.0883978 30.2671051,30.0883978 C30.2364394,30.0883978 30.0894552,30.0725362 29.7785678,30.0725362 C29.4571061,30.0725362 29.291088,30.0883978 29.2614797,30.0883978 C29.2392734,30.0883978 29.2297565,30.067249 29.2297565,30.0365832 L29.2297565,29.9382413 C29.2297565,29.9075755 29.2403309,29.8970011 29.281571,29.8970011 L29.3862576,29.8970011 C29.4486466,29.8970011 29.5216099,29.8758523 29.5216099,29.793372 L29.5216099,28.6249008 C29.5216099,28.4694571 29.4274978,28.3869768 29.3037773,28.3245878 L29.2625371,28.303439 C29.2308139,28.2939221 29.221297,28.2727733 29.221297,28.2516245 L29.221297,28.2103843 C29.221297,28.190293 29.2413883,28.1691442 29.2731115,28.1585698 L29.836727,27.88998 L29.836727,27.88998 Z" id="path2811" fill="#31875A"></path>
                        <path d="M33.3347386,29.8176931 C33.2226499,29.942471 33.0862402,30.0302386 32.8842691,30.0979147 C32.7647784,30.1338677 32.6558621,30.1338677 32.552233,30.1338677 C32.3608363,30.1338677 32.1948182,29.978424 32.1948182,29.6886854 C32.1948182,29.449704 32.2995048,29.2160098 32.6717237,29.0510491 C32.9931854,28.894548 33.1898693,28.8120677 33.3040728,28.7295874 L33.3040728,28.4599402 C33.2934984,28.3552536 33.282924,28.2315331 33.2226499,28.1691442 C33.1697779,28.1120424 33.0756658,28.0908936 32.9625197,28.0908936 C32.869465,28.0908936 32.744687,28.1226168 32.6622067,28.1850058 C32.5892434,28.2368203 32.6400005,28.3140134 32.6400005,28.4387914 C32.6400005,28.6259582 32.5469458,28.7391043 32.3291131,28.7391043 C32.2360584,28.7391043 32.1525206,28.6777728 32.1525206,28.5635693 C32.1525206,28.4176426 32.2360584,28.2516245 32.3925595,28.1384784 C32.6103922,27.9724603 32.8906138,27.8476824 33.2321669,27.8476824 C33.5219054,27.8476824 33.6149602,27.9100714 33.7090723,27.9925517 C33.8222184,28.0961808 33.8327928,28.2421075 33.8327928,28.3816896 L33.8444246,29.2012056 L33.8444246,29.449704 C33.8444246,29.7299256 33.8856648,29.8124059 33.9787195,29.8124059 C34.0506254,29.8124059 34.1246462,29.7711658 34.1436802,29.7299256 C34.1658864,29.6992598 34.1754034,29.6992598 34.1965522,29.7087768 L34.2589411,29.7510744 C34.2811474,29.7605914 34.2906643,29.7817402 34.2695155,29.8335547 C34.217701,29.9266094 34.092923,30.1338677 33.7926101,30.1338677 C33.5959262,30.1338677 33.4299082,30.040813 33.3580022,29.8176931 L33.3347386,29.8176931 L33.3347386,29.8176931 L33.3347386,29.8176931 Z M33.3040728,28.920984 C33.0756658,29.0658533 32.7341126,29.1546782 32.7341126,29.5332418 C32.7341126,29.7457872 32.8472587,29.8494163 32.9730941,29.8494163 C33.1190208,29.8388419 33.3040728,29.6939726 33.3040728,29.5998605 L33.3040728,28.920984 L33.3040728,28.920984 L33.3040728,28.920984 Z" id="path2813" fill="#31875A"></path>
                        <path d="M34.7717995,28.0866638 C34.7717995,27.7239619 34.7612251,27.2777222 34.7495933,27.1434274 C34.7400763,26.9668349 34.6512514,26.8843546 34.4852333,26.8314826 L34.3816042,26.8008168 C34.3509384,26.7902424 34.3509384,26.779668 34.3509384,26.7595766 L34.3509384,26.6971877 C34.3509384,26.6866133 34.3615128,26.6654645 34.3921786,26.6559475 C34.5994368,26.5935586 35.0044363,26.4582062 35.169397,26.3545771 C35.2317859,26.3344858 35.2635091,26.3239114 35.282543,26.3239114 C35.3142662,26.3239114 35.335415,26.3450602 35.335415,26.4169661 C35.3248406,26.6971877 35.3142662,27.7757765 35.3142662,28.0602278 L35.3142662,28.8078379 C35.3142662,29.0457619 35.3142662,29.5744819 35.3248406,29.7299256 C35.335415,29.8240378 35.3459894,29.8959437 35.4591355,29.8959437 L35.6568768,29.8959437 C35.7086914,29.8959437 35.7192658,29.9065181 35.7192658,29.9435285 L35.7192658,30.0365832 C35.7192658,30.067249 35.7086914,30.0883978 35.6896574,30.0883978 C35.6484173,30.0883978 35.4189528,30.0725362 35.0562509,30.0725362 C34.6618258,30.0725362 34.455625,30.0883978 34.4143848,30.0883978 C34.3826616,30.0883978 34.3731446,30.067249 34.3731446,30.0365832 L34.3731446,29.9371838 C34.3731446,29.9065181 34.3826616,29.8959437 34.4439931,29.8959437 L34.6417344,29.8959437 C34.693549,29.8959437 34.7717995,29.8547035 34.7717995,29.7098342 L34.7717995,28.2886349 L34.7717995,28.0866638 L34.7717995,28.0866638 L34.7717995,28.0866638 Z" id="path2815" fill="#31875A"></path>
                        <path d="M40.2926938,29.0034643 C40.3032682,29.0140387 40.3032682,29.0246131 40.3032682,29.0552789 C40.2810619,29.0859446 40.0748611,29.9467008 40.0441954,30.0873403 C39.908843,30.0820531 38.4157378,30.0714787 37.8870178,30.0714787 C37.4196293,30.0714787 37.2335198,30.0873403 37.1711309,30.0873403 C37.1298907,30.0873403 37.1298907,30.0767659 37.1298907,30.040813 L37.1298907,29.9213222 C37.1298907,29.889599 37.1298907,29.8800821 37.159499,29.8800821 L37.3667573,29.8800821 C37.5539242,29.8800821 37.5845899,29.8071187 37.5845899,29.7394426 C37.5845899,29.6463878 37.6067962,28.3499664 37.6067962,28.039079 L37.6067962,27.748283 C37.6067962,27.4173043 37.5951643,26.8674355 37.5845899,26.7786106 C37.575073,26.6443157 37.5539242,26.5925011 37.4185718,26.5925011 L37.2017966,26.5925011 C37.1711309,26.5925011 37.159499,26.5618354 37.159499,26.5459738 L37.159499,26.426483 C37.159499,26.3958173 37.1711309,26.3852429 37.2017966,26.3852429 C37.2546686,26.3852429 37.4407781,26.400047 37.9176835,26.400047 C38.4770693,26.400047 38.6949019,26.3852429 38.7361421,26.3852429 C38.7773822,26.3852429 38.7879566,26.4053342 38.7879566,26.4317702 L38.7879566,26.551261 C38.7879566,26.5713523 38.7773822,26.5925011 38.7361421,26.5925011 L38.4559205,26.5925011 C38.3004768,26.5925011 38.279328,26.6443157 38.279328,26.7838978 C38.279328,26.8568611 38.2581792,27.6340795 38.2581792,27.9978389 L38.2581792,28.4430211 C38.2581792,28.5371333 38.2581792,29.6569622 38.279328,29.8800821 L38.570124,29.8800821 C38.8598626,29.8800821 39.2341963,29.8800821 39.4403971,29.8536461 C39.7301357,29.8124059 40.0621718,29.1906312 40.1351352,28.9928899 C40.156284,28.9727986 40.165801,28.9622242 40.1975242,28.9727986 L40.2926938,29.0034643 L40.2926938,29.0034643 Z" id="path2817" fill="#31875A"></path>
                        <path d="M41.8524178,29.8176931 C41.7392717,29.942471 41.6039194,30.0302386 41.4008909,30.0979147 C41.2824576,30.1338677 41.1724838,30.1338677 41.0699122,30.1338677 C40.8774581,30.1338677 40.7124974,29.978424 40.7124974,29.6886854 C40.7124974,29.449704 40.8161266,29.2160098 41.1894029,29.0510491 C41.5108646,28.894548 41.706491,28.8120677 41.821752,28.7295874 L41.821752,28.4599402 C41.8111776,28.3552536 41.7995458,28.2315331 41.7392717,28.1691442 C41.6874571,28.1120424 41.593345,28.0908936 41.4791414,28.0908936 C41.3860867,28.0908936 41.2613088,28.1226168 41.1788285,28.1850058 C41.1069226,28.2368203 41.1576797,28.3140134 41.1576797,28.4387914 C41.1576797,28.6259582 41.064625,28.7391043 40.8467923,28.7391043 C40.7537376,28.7391043 40.6712573,28.6777728 40.6712573,28.5635693 C40.6712573,28.4176426 40.7537376,28.2516245 40.9091813,28.1384784 C41.1270139,27.9724603 41.4072355,27.8476824 41.7487886,27.8476824 C42.0395846,27.8476824 42.1326394,27.9100714 42.2267515,27.9925517 C42.3398976,28.0961808 42.350472,28.2421075 42.350472,28.3816896 L42.3610464,29.2012056 L42.3610464,29.449704 C42.3610464,29.7299256 42.4022866,29.8124059 42.4953413,29.8124059 C42.5683046,29.8124059 42.641268,29.7711658 42.6613594,29.7299256 C42.6825082,29.6992598 42.6930826,29.6992598 42.7131739,29.7087768 L42.7766203,29.7510744 C42.7977691,29.7605914 42.8072861,29.7817402 42.7871947,29.8335547 C42.7353802,29.9266094 42.6106022,30.1338677 42.3102893,30.1338677 C42.112548,30.1338677 41.9475874,30.040813 41.874624,29.8176931 L41.8524178,29.8176931 L41.8524178,29.8176931 L41.8524178,29.8176931 Z M41.821752,28.920984 C41.593345,29.0658533 41.2517918,29.1546782 41.2517918,29.5332418 C41.2517918,29.7457872 41.3649379,29.8494163 41.4897158,29.8494163 C41.6367,29.8388419 41.821752,29.6939726 41.821752,29.5998605 L41.821752,28.920984 L41.821752,28.920984 Z" id="path2819" fill="#31875A"></path>
                        <path d="M43.3761888,30.1180061 C43.3518677,30.1338677 43.3296614,30.1338677 43.3095701,30.1338677 L43.2366067,30.1127189 C43.2154579,30.1021445 43.2154579,30.0926275 43.2154579,30.0714787 C43.2260323,29.9985154 43.2313195,29.5639075 43.2313195,29.1906312 L43.2207451,27.2978136 C43.2207451,26.9446286 43.1636434,26.8822397 42.9976253,26.8304251 L42.9341789,26.8103338 C42.8728474,26.7997594 42.8633304,26.789185 42.8633304,26.7690936 L42.8633304,26.717279 C42.8633304,26.7067046 42.8739048,26.6855558 42.915145,26.6749814 C43.1224032,26.6030755 43.4216587,26.4677232 43.5887342,26.3852429 C43.6616976,26.3440027 43.7029378,26.3228539 43.7452354,26.3228539 C43.7864755,26.3228539 43.8065669,26.3535197 43.7970499,26.4053342 C43.7970499,26.4476318 43.7748437,27.0387408 43.7706139,27.4892102 L43.7653267,28.1120424 C43.9419192,27.9407371 44.2115664,27.8476824 44.4759264,27.8476824 C44.7984456,27.8476824 45.0723226,28.0285046 45.2341109,28.2822902 C45.3271656,28.428217 45.3842674,28.6460496 45.3842674,28.930501 C45.3842674,29.5015186 44.8756387,30.1338677 44.2432896,30.1338677 C43.9324022,30.1338677 43.725144,30.0714787 43.5802747,29.9985154 L43.3761888,30.1180061 L43.3761888,30.1180061 Z M43.7653267,28.9516498 C43.7653267,29.387315 43.7759011,29.5533331 43.8382901,29.7087768 C43.900679,29.8335547 44.0455483,29.942471 44.2221408,29.942471 C44.386044,29.942471 44.5742683,29.8800821 44.6927016,29.6770536 C44.8026754,29.4909442 44.8269965,29.3249261 44.8269965,29.096519 C44.8269965,28.4948357 44.5795555,28.1585698 44.1692688,28.1585698 C44.0233421,28.1585698 43.8795302,28.2103843 43.7642693,28.3140134 L43.7642693,28.9516498 L43.7653267,28.9516498 L43.7653267,28.9516498 Z" id="path2821" fill="#31875A"></path>
                        <path d="M47.7730243,28.15434 C48.0151781,28.3975512 48.130439,28.6671984 48.130439,28.973856 C48.130439,29.2635946 48.0067186,29.5438162 47.8089773,29.7616488 C47.5964318,30.0006302 47.2855445,30.1349251 46.9376467,30.1349251 C46.6119552,30.1349251 46.3317336,30.0418704 46.0980394,29.7616488 C45.8706898,29.4920016 45.8178178,29.274169 45.8178178,28.9579944 C45.8178178,28.709496 45.9415382,28.3457366 46.2524256,28.0972382 C46.5072686,27.88998 46.7769158,27.8487398 46.9894613,27.8487398 C47.337359,27.8476824 47.5964318,27.9819773 47.7730243,28.15434 M47.4980899,28.956937 C47.4980899,28.3869768 47.197777,28.0549406 46.9577381,28.0549406 C46.8234432,28.0549406 46.7187566,28.0961808 46.6309891,28.1945227 C46.4702582,28.3764024 46.4078693,28.594235 46.4078693,28.9727986 C46.4078693,29.2731115 46.4290181,29.4708528 46.5686002,29.6929152 C46.6574251,29.8335547 46.7705712,29.916035 46.9788869,29.916035 C47.3214974,29.9170925 47.4980899,29.485657 47.4980899,28.956937" id="path2823" fill="#31875A"></path>
                        <path d="M48.8452685,28.7391043 C48.8452685,28.5001229 48.8040283,28.4176426 48.6475272,28.3341048 L48.553415,28.2822902 C48.5227493,28.2727733 48.5121749,28.2621989 48.5121749,28.2410501 L48.5121749,28.2103843 C48.5121749,28.1892355 48.5227493,28.1786611 48.553415,28.163857 L49.1815344,27.8677738 C49.2122002,27.8571994 49.233349,27.8476824 49.2640147,27.8476824 C49.2957379,27.8476824 49.3052549,27.8783482 49.3105421,27.9090139 L49.3581269,28.2822902 L49.3792757,28.2822902 C49.5558682,27.9925517 49.7737008,27.8159592 50.0021078,27.8159592 C50.1670685,27.8159592 50.271755,27.9301627 50.271755,28.075032 C50.271755,28.2209587 50.1258283,28.3552536 49.9915334,28.3552536 C49.9185701,28.3552536 49.8561811,28.3341048 49.814941,28.3140134 C49.7737008,28.2822902 49.7218862,28.2727733 49.6690142,28.2727733 C49.6066253,28.2727733 49.514628,28.3140134 49.4511816,28.4229298 C49.4099414,28.4948357 49.3887926,28.6090392 49.3887926,28.6767154 L49.3887926,29.6770536 C49.3887926,29.8430717 49.4300328,29.8948862 49.5336619,29.8948862 L49.762069,29.8948862 C49.7927347,29.8948862 49.8033091,29.9054606 49.8033091,29.9318966 L49.8033091,30.0503299 C49.8033091,30.0767659 49.7927347,30.0873403 49.7684136,30.0873403 C49.7324606,30.0873403 49.5040536,30.0714787 49.1254901,30.0714787 C48.7627882,30.0714787 48.5597597,30.0873403 48.5185195,30.0873403 C48.4941984,30.0873403 48.4825666,30.0767659 48.4825666,30.0503299 L48.4825666,29.9371838 C48.4825666,29.9054606 48.4941984,29.8948862 48.5290939,29.8948862 L48.712031,29.8948862 C48.7934539,29.8948862 48.8463259,29.8536461 48.8463259,29.7553042 L48.8463259,28.7391043 L48.8452685,28.7391043 L48.8452685,28.7391043 Z" id="path2825" fill="#31875A"></path>
                        <path d="M51.7014139,29.8176931 C51.5893253,29.942471 51.453973,30.0302386 51.2509445,30.0979147 C51.1314538,30.1338677 51.0225374,30.1338677 50.9199658,30.1338677 C50.7275117,30.1338677 50.5614936,29.978424 50.5614936,29.6886854 C50.5614936,29.449704 50.6661802,29.2160098 51.038399,29.0510491 C51.3609182,28.894548 51.5565446,28.8120677 51.6718056,28.7295874 L51.6718056,28.4599402 C51.6601738,28.3552536 51.6495994,28.2315331 51.5893253,28.1691442 C51.5375107,28.1120424 51.4423411,28.0908936 51.329195,28.0908936 C51.2361403,28.0908936 51.1113624,28.1226168 51.0288821,28.1850058 C50.9559187,28.2368203 51.0077333,28.3140134 51.0077333,28.4387914 C51.0077333,28.6259582 50.9136211,28.7391043 50.6968459,28.7391043 C50.6027338,28.7391043 50.5213109,28.6777728 50.5213109,28.5635693 C50.5213109,28.4176426 50.6027338,28.2516245 50.7592349,28.1384784 C50.9770675,27.9724603 51.2572891,27.8476824 51.5988422,27.8476824 C51.8896382,27.8476824 51.982693,27.9100714 52.0768051,27.9925517 C52.1888938,28.0961808 52.2005256,28.2421075 52.2005256,28.3816896 L52.2111,29.2012056 L52.2111,29.449704 C52.2111,29.7299256 52.2523402,29.8124059 52.3453949,29.8124059 C52.4183582,29.8124059 52.4913216,29.7711658 52.511413,29.7299256 C52.5325618,29.6992598 52.5420787,29.6992598 52.5632275,29.7087768 L52.6256165,29.7510744 C52.6478227,29.7605914 52.6573397,29.7817402 52.6372483,29.8335547 C52.5843763,29.9266094 52.4606558,30.1338677 52.1603429,30.1338677 C51.9626016,30.1338677 51.7965835,30.040813 51.7246776,29.8176931 L51.7014139,29.8176931 L51.7014139,29.8176931 L51.7014139,29.8176931 Z M51.6707482,28.920984 C51.4412837,29.0658533 51.100788,29.1546782 51.100788,29.5332418 C51.100788,29.7457872 51.2128766,29.8494163 51.338712,29.8494163 C51.4846387,29.8388419 51.6707482,29.6939726 51.6707482,29.5998605 L51.6707482,28.920984 L51.6707482,28.920984 Z" id="path2827" fill="#31875A"></path>
                        <path d="M52.862483,28.1955802 C52.8212429,28.1955802 52.7905771,28.1744314 52.7905771,28.1226168 C52.7905771,28.0813766 52.8212429,28.0507109 52.8899765,28.0242749 C53.0348458,27.9724603 53.4853152,27.5886096 53.5995187,27.370777 C53.6206675,27.3295368 53.6513333,27.3189624 53.6830565,27.3189624 C53.7232392,27.3189624 53.7454454,27.3506856 53.7454454,27.3919258 L53.7232392,27.9047842 L54.4074029,27.9047842 C54.4391261,27.9047842 54.4497005,27.925933 54.4444133,27.9470818 L54.3925987,28.1649144 C54.3862541,28.1850058 54.3703925,28.1955802 54.3397267,28.1955802 L53.7116074,28.1955802 C53.701033,28.4134128 53.6968032,28.6619112 53.6968032,28.8903182 L53.6968032,29.3566493 C53.6968032,29.7616488 53.867051,29.8441291 53.9706802,29.8441291 C54.0848837,29.8441291 54.1990872,29.8187506 54.2720506,29.7817402 C54.3080035,29.766936 54.3238651,29.766936 54.3344395,29.7923146 L54.3651053,29.8547035 C54.3756797,29.8853693 54.3651053,29.9065181 54.3439565,29.9276669 C54.2720506,29.9794814 54.0542179,30.1349251 53.691516,30.1349251 C53.3795712,30.1349251 53.145877,29.8853693 53.145877,29.6685941 C53.145877,29.4814272 53.162796,29.0669107 53.162796,28.8691694 L53.162796,28.1955802 L52.862483,28.1955802 L52.862483,28.1955802 Z" id="path2829" fill="#31875A"></path>
                        <path d="M56.6216822,28.15434 C56.863836,28.3975512 56.979097,28.6671984 56.979097,28.973856 C56.979097,29.2635946 56.8553765,29.5438162 56.6576352,29.7616488 C56.4450898,30.0006302 56.1342024,30.1349251 55.7863046,30.1349251 C55.4606131,30.1349251 55.1803915,30.0418704 54.9466973,29.7616488 C54.7182902,29.4920016 54.6664757,29.274169 54.6664757,28.9579944 C54.6664757,28.709496 54.7901962,28.3457366 55.1010835,28.0972382 C55.3548691,27.88998 55.6245163,27.8487398 55.8370618,27.8487398 C56.186017,27.8476824 56.4450898,27.9819773 56.6216822,28.15434 M56.3467478,28.956937 C56.3467478,28.3869768 56.0464349,28.0549406 55.806396,28.0549406 C55.6721011,28.0549406 55.5674146,28.0961808 55.479647,28.1945227 C55.3189162,28.3764024 55.2565272,28.594235 55.2565272,28.9727986 C55.2565272,29.2731115 55.277676,29.4708528 55.4172581,29.6929152 C55.506083,29.8335547 55.6192291,29.916035 55.8275448,29.916035 C56.1701554,29.9170925 56.3467478,29.485657 56.3467478,28.956937" id="path2831" fill="#31875A"></path>
                        <path d="M57.6949838,28.7391043 C57.6949838,28.5001229 57.6537437,28.4176426 57.4972426,28.3341048 L57.4031304,28.2822902 C57.3724646,28.2727733 57.3618902,28.2621989 57.3618902,28.2410501 L57.3618902,28.2103843 C57.3618902,28.1892355 57.3724646,28.1786611 57.4031304,28.163857 L58.0312498,27.8677738 C58.0619155,27.8571994 58.0830643,27.8476824 58.1137301,27.8476824 C58.1443958,27.8476824 58.1549702,27.8783482 58.1602574,27.9090139 L58.2067848,28.2822902 L58.228991,28.2822902 C58.4055835,27.9925517 58.6234162,27.8159592 58.8518232,27.8159592 C59.0167838,27.8159592 59.120413,27.9301627 59.120413,28.075032 C59.120413,28.2209587 58.9755437,28.3552536 58.8412488,28.3552536 C58.7682854,28.3552536 58.704839,28.3341048 58.6646563,28.3140134 C58.6234162,28.2822902 58.5705442,28.2727733 58.5187296,28.2727733 C58.4563406,28.2727733 58.3643434,28.3140134 58.300897,28.4229298 C58.2585994,28.4948357 58.238508,28.6090392 58.238508,28.6767154 L58.238508,29.6770536 C58.238508,29.8430717 58.2797482,29.8948862 58.3833773,29.8948862 L58.6117843,29.8948862 C58.6424501,29.8948862 58.6530245,29.9054606 58.6530245,29.9318966 L58.6530245,30.0503299 C58.6530245,30.0767659 58.6424501,30.0873403 58.6170715,30.0873403 C58.5811186,30.0873403 58.3527115,30.0714787 57.9752054,30.0714787 C57.6125035,30.0714787 57.409475,30.0873403 57.3682349,30.0873403 C57.3417989,30.0873403 57.3322819,30.0767659 57.3322819,30.0503299 L57.3322819,29.9371838 C57.3322819,29.9054606 57.3417989,29.8948862 57.3788093,29.8948862 L57.560689,29.8948862 C57.6431693,29.8948862 57.6960413,29.8536461 57.6960413,29.7553042 L57.6960413,28.7391043 L57.6949838,28.7391043 L57.6949838,28.7391043 Z" id="path2833" fill="#31875A"></path>
                        <path d="M59.305465,31.2029395 C59.305465,31.0580702 59.4196685,30.9438667 59.5539634,30.9438667 C59.6375011,30.9438667 59.7199814,30.9745325 59.7823704,31.0062557 C59.8236106,31.026347 59.887057,31.026347 59.9177227,30.9956813 C59.9801117,30.9332923 60.2487014,30.3633322 60.3110904,30.1655909 C60.2814821,30.0101472 59.6787413,28.392264 59.6427883,28.3044965 C59.5856866,28.1702016 59.533872,28.0866638 59.4302429,28.0866638 L59.3266138,28.0866638 C59.2948906,28.0866638 59.2843162,28.0708022 59.2843162,28.0454237 L59.2843162,27.9312202 C59.2843162,27.9100714 59.2948906,27.8942098 59.3266138,27.8942098 C59.3678539,27.8942098 59.4926318,27.9100714 59.8754251,27.9100714 C60.1767955,27.9100714 60.3332966,27.8942098 60.3946282,27.8942098 C60.4252939,27.8942098 60.4358683,27.9047842 60.4358683,27.9365074 L60.4358683,28.0507109 C60.4358683,28.0708022 60.4252939,28.0866638 60.3999154,28.0866638 L60.3227222,28.0866638 C60.2698502,28.0866638 60.2286101,28.1173296 60.2455291,28.1955802 C60.2603333,28.2992093 60.5722781,29.3566493 60.6230352,29.4708528 L60.644184,29.4708528 C60.7372387,29.274169 61.1009981,28.392264 61.1263766,28.2833477 C61.155985,28.1490528 61.1094576,28.0866638 61.0164029,28.0866638 L60.9339226,28.0866638 C60.9032568,28.0866638 60.891625,28.0708022 60.891625,28.0507109 L60.891625,27.9365074 C60.891625,27.9100714 60.9032568,27.8942098 60.9339226,27.8942098 C60.997369,27.8942098 61.0999406,27.9100714 61.3812197,27.9100714 C61.5556973,27.9100714 61.6804752,27.8942098 61.7270026,27.8942098 C61.7523811,27.8942098 61.7629555,27.9100714 61.7629555,27.9365074 L61.7629555,28.0454237 C61.7629555,28.0760894 61.7523811,28.0866638 61.7333472,28.0866638 L61.6699008,28.0866638 C61.6180862,28.0866638 61.5398357,28.1025254 61.4837914,28.1744314 C61.3801622,28.3097837 61.0259198,29.0870021 60.653701,29.9276669 C60.3946282,30.4870526 60.1767955,30.9745325 60.0837408,31.1405506 C60.000203,31.2759029 59.8965739,31.4831611 59.6163523,31.4831611 C59.4302429,31.4821037 59.305465,31.3689576 59.305465,31.2029395" id="path2835" fill="#31875A"></path>
                        <path d="M27.9481392,1.63057248 C29.0203834,2.50190304 29.8927714,3.9178152 29.8927714,5.8635048 C29.8927714,6.9209448 29.6062051,8.036544 28.8353314,9.0093888 C27.9195883,10.1535389 26.6897856,11.0396736 24.5431824,11.0396736 C23.6855986,11.0396736 22.4557958,10.7827157 21.3116458,10.0964371 C20.2965034,9.48100704 19.2242592,7.92234048 19.2242592,5.8635048 C19.2242592,5.00486352 19.466413,3.64605312 20.5397146,2.31685104 C21.7970107,0.7719312 23.3408731,0.4864224 24.5717333,0.4864224 C25.6302307,0.48536496 26.7743808,0.68522112 27.9481392,1.63057248 M22.4557958,1.91608128 C21.5834078,2.7599184 21.1688914,4.23293232 21.1688914,5.3770824 C21.1688914,9.09504144 23.4571915,10.4104968 24.6584434,10.4104968 C27.546312,10.4104968 28.0041835,7.20751104 28.0041835,6.0062592 C28.0041835,2.88892608 25.8882461,1.1155992 24.5146315,1.1155992 C24.2576736,1.11454176 23.4286406,0.97072992 22.4557958,1.91608128" id="path2837" fill="#31875A"></path>
                        <path d="M32.0319725,7.6294296 C31.9389178,7.89590448 31.3689576,9.55714272 31.3107984,9.8712024 C31.2875347,9.96425712 31.2875347,10.0573118 31.2875347,10.115471 C31.2875347,10.266685 31.4747016,10.3946352 31.706281,10.3946352 L32.1937608,10.3946352 C32.2868155,10.3946352 32.3100792,10.4178989 32.3100792,10.4527944 L32.3100792,10.742533 C32.3100792,10.812324 32.2868155,10.8588514 32.2170245,10.8588514 C32.0552362,10.8588514 31.5666989,10.8239558 30.7524701,10.8239558 C29.8927714,10.8239558 29.6368709,10.8588514 29.4740251,10.8588514 C29.4052915,10.8588514 29.4052915,10.7890603 29.4052915,10.7076374 L29.4052915,10.4876899 C29.4052915,10.4178989 29.4274978,10.3946352 29.4740251,10.3946352 L29.8229803,10.3946352 C30.1486718,10.3946352 30.3569875,10.2317894 30.5663606,9.8712024 C30.682679,9.66288672 31.5191141,7.5712704 31.8680693,6.59419584 C31.9484347,6.36261648 32.8906138,3.85225392 33.0058747,3.55088352 C33.0291384,3.43456512 33.0999869,3.225192 33.0291384,3.15540096 C32.9942429,3.12050544 32.9593474,3.0507144 32.9593474,3.01581888 C32.9593474,2.96929152 32.982611,2.92276416 33.0756658,2.89950048 C33.4468272,2.80644576 34.0865784,2.458548 34.225103,2.31896592 C34.2948941,2.24917488 34.3414214,2.20264752 34.3995806,2.20264752 C34.4693717,2.20264752 34.515899,2.3422296 34.5391627,2.41202064 C34.7485358,3.13213728 35.6558194,5.73449712 35.864135,6.47893488 C36.1432992,7.38516096 36.887737,9.54656832 37.0484678,9.85957056 C37.257841,10.2550531 37.5602688,10.3946352 37.7929056,10.3946352 L38.1651245,10.3946352 C38.2338581,10.3946352 38.2581792,10.4178989 38.2581792,10.4760581 L38.2581792,10.7192693 C38.2581792,10.7890603 38.2349155,10.8588514 38.1429182,10.8588514 C37.9335451,10.8588514 37.7009083,10.8239558 36.4224634,10.8239558 C35.4464462,10.8239558 35.0520211,10.8588514 34.7961206,10.8588514 C34.7030659,10.8588514 34.6798022,10.7890603 34.6798022,10.7192693 L34.6798022,10.4876899 C34.6798022,10.4178989 34.7030659,10.3946352 34.7739144,10.3946352 L35.0752848,10.3946352 C35.4009763,10.3946352 35.494031,10.2783168 35.4231826,9.96425712 C35.3301278,9.54656832 34.8669691,8.05875024 34.7263296,7.6294296 L32.0319725,7.6294296 L32.0319725,7.6294296 Z M34.6110686,7.164156 C34.4947502,6.82683264 33.7048426,4.17794544 33.6350515,3.94530864 C33.5885242,3.80572656 33.5652605,3.73593552 33.5187331,3.73593552 C33.4489421,3.73593552 33.4024147,3.78246288 33.3675192,3.88714944 C33.3209918,4.03836336 32.2751837,6.89662368 32.1937608,7.164156 L34.6110686,7.164156 L34.6110686,7.164156 Z" id="path2839" fill="#31875A"></path>
                        <path d="M41.0254997,7.6875888 C41.0254997,8.26812336 41.0477059,9.96531456 41.0593378,10.1397922 C41.072027,10.3015805 41.187288,10.3946352 41.3279275,10.3946352 L41.7678226,10.3946352 C41.8154074,10.3946352 41.8619347,10.4178989 41.8619347,10.4527944 L41.8619347,10.7668541 C41.8619347,10.8133814 41.838671,10.8599088 41.7921437,10.8599088 C41.6525616,10.8599088 41.3046638,10.8250133 40.305383,10.8250133 C39.3071597,10.8250133 38.9338834,10.8599088 38.817565,10.8599088 C38.7710376,10.8599088 38.7488314,10.8366451 38.7488314,10.7784859 L38.7488314,10.4644262 C38.7488314,10.4178989 38.7710376,10.3946352 38.817565,10.3946352 L39.2363112,10.3946352 C39.4446269,10.3946352 39.538739,10.3015805 39.5503709,10.1746877 C39.5620027,10.081633 39.584209,7.96675296 39.584209,6.52546224 L39.584209,5.85187296 C39.584209,5.64249984 39.5620027,3.41130144 39.5620027,3.30661488 C39.5620027,3.16809024 39.4932691,3.02850816 39.214105,3.02850816 L38.8651498,3.02850816 C38.7953587,3.02850816 38.7710376,3.00524448 38.7710376,2.94708528 L38.7710376,2.6330256 C38.7710376,2.58649824 38.7943013,2.56323456 38.8651498,2.56323456 C39.0047318,2.56323456 39.353687,2.59813008 40.3519104,2.59813008 C41.2581365,2.59813008 41.6292979,2.56323456 41.7921437,2.56323456 C41.8619347,2.56323456 41.8851984,2.58649824 41.8851984,2.64465744 L41.8851984,2.93545344 C41.8851984,3.00524448 41.8629922,3.02850816 41.7921437,3.02850816 L41.4209822,3.02850816 C41.187288,3.02850816 41.072027,3.0982992 41.072027,3.36477408 C41.072027,3.55088352 41.0254997,5.36333568 41.0254997,5.921664 L41.0254997,6.43240752 L41.2338154,6.43240752 C41.3744549,6.43240752 41.4886584,6.38588016 41.6282405,6.26956176 C41.8492454,6.08450976 43.8710707,3.56251536 43.999021,3.38803776 C44.1618667,3.1564584 44.0222846,3.01687632 43.8129115,3.01687632 L43.6384339,3.01687632 C43.5919066,3.01687632 43.5802747,2.99361264 43.5802747,2.93545344 L43.5802747,2.65628928 C43.5802747,2.58649824 43.602481,2.56323456 43.6490083,2.56323456 C43.7885904,2.56323456 44.253864,2.59813008 45.020508,2.59813008 C45.4857816,2.59813008 45.8802067,2.56323456 46.0197888,2.56323456 C46.0895798,2.56323456 46.1128435,2.58649824 46.1128435,2.64465744 L46.1128435,2.93545344 C46.1128435,3.00524448 46.0663162,3.02850816 46.0197888,3.02850816 L45.787152,3.02850816 C45.6243062,3.02850816 45.3684058,3.07503552 45.1368264,3.225192 C44.5901299,3.58577904 42.9521554,5.47965408 42.5101454,6.06124608 C42.975419,6.64178064 45.347257,9.70941408 45.6951547,10.115471 C45.9034704,10.3713715 46.2058982,10.3946352 46.3920077,10.3946352 L46.6468507,10.3946352 C46.7166418,10.3946352 46.7399054,10.4411626 46.7399054,10.4760581 L46.7399054,10.7668541 C46.7399054,10.8366451 46.7176992,10.8599088 46.6468507,10.8599088 C46.5326472,10.8599088 46.1128435,10.8250133 45.0437717,10.8250133 C44.0677546,10.8250133 43.6257446,10.8599088 43.4628989,10.8599088 C43.417429,10.8599088 43.3941653,10.8366451 43.3941653,10.7668541 L43.3941653,10.4760581 C43.3941653,10.4295307 43.417429,10.406267 43.4628989,10.406267 L43.6257446,10.406267 C43.8340603,10.406267 43.8583814,10.1979514 43.8118541,10.1048966 C43.6955357,9.87225984 41.8132925,7.17684528 41.627183,6.99073584 C41.5119221,6.87441744 41.3733974,6.82789008 41.2327579,6.82789008 L41.0244422,6.82789008 L41.0244422,7.6875888 L41.0254997,7.6875888 L41.0254997,7.6875888 Z" id="path2841" fill="#31875A"></path>
                        <path d="M22.0550261,19.0550688 C22.0550261,19.9137101 22.083577,21.5146742 22.1131853,21.7293346 C22.1565403,22.0159008 22.2559397,22.2728587 22.4854042,22.2728587 L23.2002336,22.2728587 C23.2858862,22.2728587 23.3144371,22.3151563 23.3144371,22.3733155 L23.3144371,22.7159261 C23.3144371,22.8163829 23.2710821,22.8449338 23.1568786,22.8449338 C22.9707691,22.8449338 22.6863178,22.8015787 21.1984997,22.8015787 C19.7963342,22.8015787 19.4537237,22.8449338 19.3099118,22.8449338 C19.2242592,22.8449338 19.1957083,22.8015787 19.1957083,22.7159261 L19.1957083,22.3860048 C19.1957083,22.3140989 19.2242592,22.2718013 19.281361,22.2718013 L19.7677834,22.2718013 C20.0839579,22.2718013 20.312365,22.1861486 20.312365,21.800183 C20.3398584,20.3694667 20.3398584,19.0254605 20.3398584,17.6814542 L20.3398584,13.9201402 C20.3398584,13.4337178 20.1410597,13.2053107 19.8819869,13.2053107 L19.324716,13.2053107 C19.2538675,13.2053107 19.2242592,13.1767598 19.2242592,13.1196581 L19.2242592,12.7336925 C19.2242592,12.6617866 19.2528101,12.6332357 19.324716,12.6332357 C19.4262302,12.6332357 19.8819869,12.6765907 21.2852098,12.6765907 C22.0856918,12.6765907 23.4011472,12.6332357 23.8304678,12.6332357 C24.9746179,12.6332357 25.8607526,13.0192013 26.4328277,13.5341746 C26.9467435,13.9920461 27.2047589,14.592672 27.2047589,15.1361962 C27.2047589,16.9380739 26.118768,17.6814542 24.5442398,17.9384122 L24.5442398,17.9955139 C24.9450096,18.1393258 25.2019675,18.3962837 25.4018237,18.6532416 C25.5741864,18.8827061 26.4603211,20.2267123 26.5755821,20.3980176 C26.6612347,20.5418294 27.5759203,21.8287339 27.7905806,22.0285901 C28.0623427,22.2718013 28.4631125,22.3003522 28.805723,22.3003522 C28.8913757,22.3003522 28.9188691,22.3437072 28.9188691,22.400809 L28.9188691,22.7011219 C28.9188691,22.8005213 28.8913757,22.8438763 28.805723,22.8438763 C28.6915195,22.8438763 28.3193006,22.8005213 27.404615,22.8005213 C27.0038453,22.8005213 26.4592637,22.8301296 26.1462614,22.8438763 C25.9738987,22.7148686 25.7021366,22.328903 25.5170846,22.0285901 C25.2590693,21.6288778 24.7017984,20.5989312 24.5717333,20.3694667 C24.4289789,20.1125088 24.0282091,19.4547811 23.8008595,19.139664 C23.4434448,18.6394949 23.114581,18.2535293 22.513955,18.2535293 C22.4557958,18.2535293 22.2136421,18.267276 22.0550261,18.2820802 L22.0550261,19.0550688 L22.0550261,19.0550688 L22.0550261,19.0550688 Z M22.0846344,17.7671069 C22.2844906,17.7956578 22.4568533,17.8242086 22.6281586,17.8242086 C24.859357,17.8242086 25.316171,16.0223309 25.316171,15.3646032 C25.316171,14.7068755 25.044409,14.0914454 24.6869942,13.7625816 C24.172021,13.3057675 23.5142933,13.148209 22.7994638,13.148209 C22.5710568,13.148209 22.3997515,13.1619557 22.285548,13.2338616 C22.1713445,13.3057675 22.1142427,13.4770728 22.1142427,13.6483781 L22.0846344,17.7671069 L22.0846344,17.7671069 Z" id="path2843" fill="#31875A"></path>
                        <path d="M31.7031086,19.0360349 C31.7031086,19.1523533 31.7253149,21.8245042 31.7253149,21.9524544 C31.7253149,22.3246733 31.9114243,22.3712006 32.189531,22.3712006 L32.6780683,22.3712006 C32.7245957,22.3712006 32.771123,22.3944643 32.771123,22.4515661 L32.771123,22.7423621 C32.771123,22.8121531 32.7245957,22.8354168 32.6548046,22.8354168 C32.5152226,22.8354168 32.0510064,22.8005213 30.9586709,22.8005213 C29.7954869,22.8005213 29.2847434,22.8354168 29.1694824,22.8354168 C29.0996914,22.8354168 29.0764277,22.8121531 29.0764277,22.7539939 L29.0764277,22.4399342 C29.0764277,22.3944643 29.0986339,22.3712006 29.1694824,22.3712006 L29.6336986,22.3712006 C29.8663354,22.3712006 30.1222358,22.347937 30.1687632,22.0338773 C30.1909694,21.8710315 30.2152906,19.3617264 30.2152906,18.733607 L30.2152906,17.9204357 C30.2152906,17.6412715 30.1920269,15.5496552 30.180395,15.3994987 C30.1454995,15.1203346 30.0291811,15.0040162 29.7034896,15.0040162 L29.1007488,15.0040162 C29.0320152,15.0040162 29.0076941,14.9807525 29.0076941,14.9225933 L29.0076941,14.6201654 C29.0076941,14.5630637 29.0309578,14.5398 29.0774851,14.5398 C29.2160098,14.5398 29.8208654,14.5736381 30.9597283,14.5736381 C32.0753275,14.5736381 32.4454315,14.5398 32.6093347,14.5398 C32.6791258,14.5398 32.7023894,14.5852699 32.7023894,14.6434291 L32.7023894,14.9109614 C32.7023894,14.9807525 32.6558621,15.0040162 32.6093347,15.0040162 L32.1683822,15.0040162 C31.9124818,15.0040162 31.7263723,15.0970709 31.7263723,15.3180758 C31.7263723,15.4343942 31.7041661,17.9902267 31.7041661,18.1298088 L31.7041661,19.0360349 L31.7031086,19.0360349 L31.7031086,19.0360349 Z" id="path2845" fill="#31875A"></path>
                        <path d="M34.8056376,17.4562195 C34.8056376,17.1537917 34.7591102,15.5041853 34.7358466,15.3297077 C34.7136403,15.051601 34.5497371,15.0050736 34.3171003,15.0050736 L33.6900384,15.0050736 C33.643511,15.0050736 33.5969837,14.9818099 33.5969837,14.9236507 L33.5969837,14.609591 C33.5969837,14.5630637 33.643511,14.5398 33.7016702,14.5398 C34.0379362,14.5398 34.6427918,14.5746955 35.4559632,14.5746955 C36.0364978,14.5746955 36.6180898,14.5398 37.1975669,14.5398 C38.755176,14.5398 40.0092998,14.6910139 41.0783717,15.59724 C41.8460731,16.2243019 42.3800803,17.200319 42.3800803,18.548555 C42.3800803,19.8735274 42.006804,20.7564898 41.2412174,21.5929248 C40.1023546,22.8248424 38.2899024,22.8364742 37.4999947,22.8364742 C37.0579848,22.8364742 35.8725946,22.8015787 35.29206,22.8015787 C34.2695155,22.8015787 33.8052994,22.8364742 33.6424536,22.8364742 C33.5959262,22.8364742 33.5726626,22.8132106 33.5726626,22.7317877 L33.5726626,22.4409917 C33.5726626,22.3944643 33.5959262,22.3712006 33.6657173,22.3712006 L34.3393066,22.3712006 C34.5730008,22.3712006 34.6882618,22.2781459 34.7220998,22.0804046 C34.7580528,21.8488253 34.8045802,19.2221443 34.8045802,18.3391819 L34.8045802,17.4562195 L34.8056376,17.4562195 L34.8056376,17.4562195 Z M36.2691346,18.5950824 C36.2691346,18.7346645 36.2923982,20.7099624 36.2923982,21.430079 C36.2923982,21.6627158 36.3389256,21.8488253 36.5007139,22.0804046 C36.6413534,22.3014096 37.0823059,22.3944643 37.5243158,22.3944643 C38.4294845,22.3944643 39.3589742,21.9873499 39.9395088,21.2207059 C40.4291035,20.593644 40.7759438,19.6408906 40.7759438,18.5718187 C40.7759438,17.642329 40.3825762,16.6430482 39.8464541,16.0381925 C39.2193922,15.3646032 38.1968477,14.9469144 37.2440942,14.9469144 C36.9881938,14.9469144 36.6878808,14.9469144 36.5007139,15.0632328 C36.3389256,15.1552301 36.2923982,15.3413395 36.2923982,15.5739763 C36.2691346,16.0625136 36.2691346,17.5725379 36.2691346,17.7586474 L36.2691346,18.5950824 L36.2691346,18.5950824 Z" id="path2847" fill="#31875A"></path>
                        <path d="M51.4433986,21.651084 C51.4433986,21.8139298 51.4899259,21.9302482 51.4899259,22.0233029 C51.4899259,22.1163576 51.4201349,22.1618275 51.3038165,22.2083549 C50.351063,22.6968922 49.3983096,22.9760563 48.0046037,22.9760563 C46.8657408,22.9760563 45.4477138,22.5805738 44.6578061,21.6278203 C43.9376894,20.8379126 43.5887342,19.8386318 43.5887342,18.4671322 C43.5887342,17.3980603 44.051893,16.2824611 44.9137066,15.5390808 C45.7501416,14.7957005 46.8192134,14.4002179 48.2129194,14.4002179 C49.3285186,14.4002179 50.211481,14.7491731 50.5826424,15.0283373 C50.7232819,15.1330238 50.7920155,15.0970709 50.862864,15.0050736 L51.0013886,14.8189642 C51.0595478,14.7375413 51.0944434,14.7026458 51.1642344,14.7026458 C51.2794954,14.7026458 51.3038165,14.7724368 51.3038165,14.8654915 L51.4190774,17.1886872 C51.4190774,17.2817419 51.4190774,17.3399011 51.3725501,17.351533 L51.0933859,17.3980603 C51.0235949,17.4096922 51.0003312,17.3747966 50.9770675,17.3050056 C50.8163366,16.8407894 50.5139088,16.1904638 50.0475778,15.7019266 C49.6531526,15.2831803 49.0038845,14.8887552 48.1188072,14.8887552 C47.3986906,14.8887552 46.7726861,15.0748646 46.1445667,15.7949813 C45.5872958,16.4220432 45.1918133,17.3980603 45.1918133,18.4206048 C45.1918133,19.7921045 45.5640322,20.9774947 46.2376214,21.651084 C46.7948923,22.1850912 47.3532206,22.4409917 48.096601,22.4409917 C48.8410387,22.4409917 49.2819912,22.347937 49.6774738,22.1385638 C49.9333742,22.0000392 49.9566379,21.6743477 49.9566379,21.0705494 L49.9566379,20.2214251 C49.9566379,19.8037363 49.8392621,19.6874179 49.5378917,19.6874179 L49.0493544,19.6874179 C48.9806208,19.6874179 48.9562997,19.6408906 48.9562997,19.5827314 L48.9562997,19.315199 C48.9562997,19.245408 48.9795634,19.2232018 49.0250333,19.2232018 C49.1646154,19.2232018 49.7229437,19.2570398 50.6767546,19.2570398 C51.6527717,19.2570398 52.0471968,19.2232018 52.1624578,19.2232018 C52.2555125,19.2232018 52.2787762,19.245408 52.2787762,19.3035672 L52.2787762,19.5943632 C52.2787762,19.6641542 52.2555125,19.6874179 52.1857214,19.6874179 L51.7912963,19.6874179 C51.5819232,19.6874179 51.4423411,19.7804726 51.4423411,20.1167386 L51.4423411,21.651084 L51.4433986,21.651084 L51.4433986,21.651084 Z" id="path2849" fill="#31875A"></path>
                        <path d="M55.4288899,19.4315174 C55.4405218,20.0585794 55.4637854,21.1974422 55.4637854,21.4068154 C55.4637854,22.0106136 55.6721011,22.2432504 55.9280016,22.3130414 C56.1130536,22.3595688 56.3922178,22.4060962 56.8342277,22.4060962 C57.0414859,22.4060962 57.577608,22.3828325 57.8102448,22.3595688 C58.0185605,22.3363051 58.4605704,22.2199867 58.7619408,21.9640862 C58.9702565,21.7790342 59.6216395,21.0113328 59.8426445,20.7332261 C59.8881144,20.6750669 59.9230099,20.663435 59.9695373,20.6866987 L60.1556467,20.8030171 C60.1905422,20.8262808 60.2021741,20.8611763 60.1789104,20.9182781 L59.6216395,22.6619966 C59.586744,22.7666832 59.5053211,22.8354168 59.365739,22.8354168 C59.3075798,22.8354168 59.0516794,22.823785 58.3315627,22.8132106 C57.5998142,22.8132106 56.4027922,22.8015787 54.4623898,22.8015787 C54.0320117,22.8015787 53.7190094,22.8132106 53.4736834,22.8132106 C53.2410466,22.823785 53.0792582,22.8354168 52.9745717,22.8354168 C52.9058381,22.8354168 52.881517,22.8132106 52.881517,22.7434195 L52.881517,22.4642554 C52.881517,22.3944643 52.9047806,22.3712006 52.9978354,22.3712006 L53.3922605,22.3712006 C53.9273251,22.3712006 53.972795,22.3014096 53.972795,21.8710315 L53.972795,19.1058259 L53.972795,17.9680205 C53.972795,17.0142096 53.9505888,15.5739763 53.9273251,15.4111306 C53.8807978,15.0970709 53.7644794,15.0040162 53.4155242,15.0040162 L52.977744,15.0040162 C52.9301592,15.0040162 52.9090104,14.9807525 52.9090104,14.9236507 L52.9090104,14.6212229 C52.9090104,14.5630637 52.9206422,14.5398 52.977744,14.5398 C53.232587,14.5398 53.6513333,14.5863274 54.6040867,14.5746955 L54.9287208,14.5746955 C55.4405218,14.5746955 58.1137301,14.5514318 58.6244736,14.5514318 C58.8116405,14.5514318 59.031588,14.5398 59.0886898,14.5398 C59.1457915,14.5398 59.1701126,14.5630637 59.1817445,14.609591 C59.2282718,14.760805 59.6702818,16.3406203 59.7168091,16.4569387 C59.7400728,16.5267298 59.728441,16.5616253 59.6819136,16.584889 L59.4735979,16.6779437 C59.4387024,16.6895755 59.4038069,16.6779437 59.3678539,16.6197845 C59.3213266,16.5499934 58.3696306,15.4809216 58.089409,15.3180758 C57.8472552,15.1784938 57.5331955,15.0272798 57.2064466,15.015648 L55.4405218,14.9691206 L55.4183155,18.3275501 C55.7662133,18.3275501 56.6026483,18.3042864 56.7432878,18.2693909 C56.9970734,18.2228635 57.137713,18.1298088 57.277295,17.8517021 C57.3460286,17.7004882 57.4634045,17.4096922 57.4634045,17.200319 C57.4634045,17.130528 57.5099318,17.1072643 57.5564592,17.1072643 L57.858887,17.130528 C57.9054144,17.130528 57.9403099,17.1537917 57.9286781,17.2235827 C57.9054144,17.4096922 57.9054144,18.1763362 57.9054144,18.478764 C57.9054144,18.9440376 57.9519418,19.5013085 57.974148,19.757209 C57.974148,19.8153682 57.9519418,19.827 57.8810933,19.8386318 L57.6262502,19.8851592 C57.5797229,19.896791 57.5564592,19.8735274 57.5331955,19.8037363 C57.4856107,19.6176269 57.4052453,19.3617264 57.3460286,19.2221443 C57.2413421,18.9895075 57.0203371,18.8277192 56.7654941,18.8044555 C56.3467478,18.7579282 55.789477,18.7346645 55.4183155,18.7346645 L55.4288899,19.4315174 L55.4288899,19.4315174 Z" id="path2851" fill="#31875A"></path>
                    </g>
                </g>
            </g>
        </g>
    </g>
</svg>