<?xml version="1.0" encoding="UTF-8"?>
<svg width="197px" height="32px" viewBox="0 0 197 32" version="1.1" xmlns="http://www.w3.org/2000/svg" xmlns:xlink="http://www.w3.org/1999/xlink">
    <!-- Generator: Sketch 39.1 (31720) - http://www.bohemiancoding.com/sketch -->
    <title>Siemens-logo</title>
    <desc>Created with Sketch.</desc>
    <defs></defs>
    <g id="Page-1" stroke="none" stroke-width="1" fill="none" fill-rule="evenodd">
        <g id="Siemens-logo" fill="#009999">
            <g id="Ebene_x0020_1">
                <path d="M194.121,1.3466 L194.121,7.1755 C191.1012,6.0355 188.4126,5.4591 186.0595,5.4591 C184.6657,5.4591 183.5558,5.7172 182.7213,6.2162 C181.8867,6.7195 181.4608,7.339 181.4608,8.0703 C181.4608,9.0425 182.4029,9.9071 184.3,10.6815 L189.7805,13.3486 C194.2114,15.4608 196.4096,18.2655 196.4096,21.7887 C196.4096,24.7182 195.2438,27.0541 192.8907,28.7834 C190.5548,30.53 187.4102,31.3946 183.4956,31.3946 C181.6888,31.3946 180.0671,31.3172 178.626,31.1537 C177.1849,30.9989 175.5287,30.6805 173.6918,30.2245 L173.6918,24.1246 C177.0601,25.2646 180.1273,25.841 182.889,25.841 C186.1842,25.841 187.8232,24.886 187.8232,22.9588 C187.8232,21.9995 187.1521,21.2252 185.7885,20.6186 L179.7014,18.0246 C177.4559,17.0094 175.7868,15.7791 174.6941,14.3208 C173.6187,12.8496 173.0723,11.1633 173.0723,9.2361 C173.0723,6.5388 174.208,4.3664 176.4535,2.7145 C178.7163,1.0755 181.719,0.2539 185.4529,0.2539 C186.666,0.2539 188.0641,0.3614 189.6128,0.5593 C191.1743,0.7701 192.6756,1.0282 194.121,1.3466 L194.121,1.3466 Z" id="Shape"></path>
                <path d="M21.7222,1.3466 L21.7222,7.1755 C18.7023,6.0355 16.018,5.4591 13.6649,5.4591 C12.2668,5.4591 11.1613,5.7172 10.3267,6.2162 C9.4922,6.7195 9.0663,7.339 9.0663,8.0703 C9.0663,9.0425 10.0213,9.9071 11.9184,10.6815 L17.3989,13.3486 C21.8125,15.4608 24.0151,18.2655 24.0151,21.7887 C24.0151,24.7182 22.845,27.0541 20.5091,28.7834 C18.156,30.53 15.0286,31.3946 11.1011,31.3946 C9.2943,31.3946 7.6682,31.3172 6.2271,31.1537 C4.786,30.9989 3.147,30.6805 1.2973,30.2245 L1.2973,24.1246 C4.6785,25.2646 7.7457,25.841 10.4902,25.841 C13.7854,25.841 15.4244,24.886 15.4244,22.9588 C15.4244,21.9995 14.7576,21.2252 13.4068,20.6186 L7.3198,18.0246 C5.057,17.0094 3.3879,15.7791 2.3125,14.3208 C1.2198,12.8496 0.6864,11.1633 0.6864,9.2361 C0.6864,6.5388 1.8135,4.3664 4.0719,2.7145 C6.3175,1.0755 9.3244,0.2539 13.0584,0.2539 C14.2844,0.2539 15.6653,0.3614 17.2311,0.5593 C18.7798,0.7701 20.2811,1.0282 21.7222,1.3466 L21.7222,1.3466 Z" id="Shape"></path>
                <polygon id="Shape" points="28.0028 0.8002 36.9291 0.8002 36.9291 30.8483 28.0028 30.8483"></polygon>
                <polygon id="Shape" points="65.6866 0.8002 65.6866 6.3539 52.4241 6.3539 52.4241 13.0173 63.9272 13.0173 63.9272 18.0246 52.4241 18.0246 52.4241 25.0194 65.9576 25.0194 65.9576 30.8483 43.8335 30.8483 43.8335 0.8002"></polygon>
                <polygon id="Shape" points="107.358 0.8002 107.358 30.8483 99.025 30.8483 99.025 11.0299 90.3789 31.1236 85.234 31.1236 76.9186 11.0299 76.9186 30.8483 70.8918 30.8483 70.8918 0.8002 81.7882 0.8002 89.226 19.1947 97.008 0.8002"></polygon>
                <polygon id="Shape" points="136.103 0.8002 136.103 6.3539 122.913 6.3539 122.913 13.0173 134.416 13.0173 134.416 18.0246 122.913 18.0246 122.913 25.0194 136.374 25.0194 136.374 30.8483 114.25 30.8483 114.25 0.8002"></polygon>
                <polygon id="Shape" points="167.424 0.8002 167.424 30.8483 157.956 30.8483 147.331 11.5762 147.331 30.8483 141.308 30.8483 141.308 0.8002 151.052 0.8002 161.402 19.7411 161.402 0.8002"></polygon>
            </g>
        </g>
    </g>
</svg>