<?xml version="1.0" encoding="UTF-8"?>
<svg width="795px" height="205px" viewBox="0 0 795 205" version="1.1" xmlns="http://www.w3.org/2000/svg" xmlns:xlink="http://www.w3.org/1999/xlink">
    <!-- Generator: Sketch 39.1 (31720) - http://www.bohemiancoding.com/sketch -->
    <title>TenableLogo_FullColor_RGB</title>
    <desc>Created with Sketch.</desc>
    <defs></defs>
    <g id="Page-1" stroke="none" stroke-width="1" fill="none" fill-rule="evenodd">
        <g id="TenableLogo_FullColor_RGB">
            <path d="M255.824,189.326 L255.824,164.315 C255.824,157.51 252.341,155.453 247.198,155.453 C242.527,155.453 238.175,158.304 235.882,161.389 L235.882,189.326 L229.942,189.326 L229.942,151.096 L235.882,151.096 L235.882,156.64 C238.571,153.394 243.793,150.148 249.573,150.148 C257.486,150.148 261.684,154.185 261.684,162.497 L261.684,189.326 L255.824,189.326" id="Fill-1" fill="#3F4D57"></path>
            <path d="M288.195,155.058 C280.041,155.058 276.007,161.941 275.689,167.721 L300.779,167.721 C300.699,162.097 296.9,155.058 288.195,155.058 L288.195,155.058 Z M269.436,170.173 C269.436,159.091 277.349,150.148 288.274,150.148 C299.829,150.148 306.633,159.17 306.633,170.649 L306.633,172.148 L275.768,172.148 C276.241,179.354 281.228,185.372 289.459,185.372 C293.893,185.372 298.245,183.625 301.33,180.462 L304.18,184.341 C300.301,188.136 295.159,190.277 288.984,190.277 C277.586,190.277 269.436,182.122 269.436,170.173 L269.436,170.173 Z" id="Fill-2" fill="#3F4D57"></path>
            <path d="M315.415,181.33 L315.415,156.322 L309.084,156.322 L309.084,151.096 L315.415,151.096 L315.415,140.649 L321.432,140.649 L321.432,151.096 L329.19,151.096 L329.19,156.322 L321.432,156.322 L321.432,180.065 C321.432,182.917 322.701,184.972 325.232,184.972 C326.974,184.972 328.478,184.182 329.269,183.313 L331.009,187.822 C329.508,189.243 327.368,190.277 323.965,190.277 C318.268,190.277 315.415,187.032 315.415,181.33" id="Fill-3" fill="#3F4D57"></path>
            <polyline id="Fill-4" fill="#3F4D57" points="368.603 189.326 358.629 158.617 348.659 189.326 342.721 189.326 330.533 151.096 336.708 151.096 346.045 181.569 356.098 151.096 361.243 151.096 371.213 181.569 380.553 151.096 386.808 151.096 374.618 189.326 368.603 189.326"></polyline>
            <path d="M420.997,170.173 C420.997,162.414 416.487,155.453 408.335,155.453 C400.182,155.453 395.671,162.414 395.671,170.173 C395.671,178.007 400.182,184.972 408.335,184.972 C416.487,184.972 420.997,178.007 420.997,170.173 L420.997,170.173 Z M389.416,170.173 C389.416,159.091 396.698,150.148 408.335,150.148 C419.967,150.148 427.247,159.091 427.247,170.173 C427.247,181.252 419.967,190.277 408.335,190.277 C396.698,190.277 389.416,181.252 389.416,170.173 L389.416,170.173 Z" id="Fill-5" fill="#3F4D57"></path>
            <path d="M434.924,189.326 L434.924,151.096 L440.86,151.096 L440.86,157.192 C443.945,153.233 448.379,150.226 453.606,150.226 L453.606,156.322 C452.889,156.244 452.18,156.162 451.307,156.162 C447.587,156.162 442.599,159.17 440.86,162.258 L440.86,189.326 L434.924,189.326" id="Fill-6" fill="#3F4D57"></path>
            <polyline id="Fill-7" fill="#3F4D57" points="485.102 189.326 471.406 172.148 464.999 178.405 464.999 189.326 459.064 189.326 459.064 136.533 464.999 136.533 464.999 171.438 485.102 151.096 492.619 151.096 475.681 168.433 492.697 189.326 485.102 189.326"></polyline>
            <path d="M513.036,184.259 L516.042,179.987 C518.58,182.917 523.403,185.446 528.626,185.446 C534.484,185.446 537.73,182.679 537.73,178.88 C537.73,169.616 514.065,175.316 514.065,161.149 C514.065,155.136 519.127,150.148 528.231,150.148 C534.805,150.148 539.39,152.603 542.401,155.692 L539.629,159.803 C537.334,157.031 533.219,154.98 528.231,154.98 C523.007,154.98 519.766,157.587 519.766,160.99 C519.766,169.303 543.427,163.841 543.427,178.719 C543.427,185.129 538.286,190.277 528.47,190.277 C522.138,190.277 516.915,188.301 513.036,184.259" id="Fill-8" fill="#3F4D57"></path>
            <path d="M567.649,155.058 C559.497,155.058 555.456,161.941 555.143,167.721 L580.233,167.721 C580.155,162.097 576.352,155.058 567.649,155.058 L567.649,155.058 Z M548.885,170.173 C548.885,159.091 556.802,150.148 567.727,150.148 C579.278,150.148 586.09,159.17 586.09,170.649 L586.09,172.148 L555.221,172.148 C555.694,179.354 560.678,185.372 568.909,185.372 C573.345,185.372 577.696,183.625 580.784,180.462 L583.635,184.341 C579.759,188.136 574.609,190.277 568.439,190.277 C557.041,190.277 548.885,182.122 548.885,170.173 L548.885,170.173 Z" id="Fill-9" fill="#3F4D57"></path>
            <path d="M591.467,170.173 C591.467,158.856 599.144,150.148 610.539,150.148 C617.507,150.148 621.624,152.999 624.548,156.796 L620.593,160.359 C618.064,156.875 614.815,155.453 610.856,155.453 C602.787,155.453 597.641,161.702 597.641,170.173 C597.641,178.641 602.787,184.972 610.856,184.972 C614.815,184.972 618.064,183.391 620.593,179.987 L624.548,183.625 C621.624,187.424 617.507,190.277 610.539,190.277 C599.144,190.277 591.467,181.491 591.467,170.173" id="Fill-10" fill="#3F4D57"></path>
            <path d="M656.765,189.326 L656.765,183.947 C653.836,187.268 648.847,190.277 643.147,190.277 C635.155,190.277 630.962,186.319 630.962,178.088 L630.962,151.096 L636.894,151.096 L636.894,176.268 C636.894,182.995 640.296,184.972 645.524,184.972 C650.114,184.972 654.545,182.279 656.765,179.193 L656.765,151.096 L662.701,151.096 L662.701,189.326 L656.765,189.326" id="Fill-11" fill="#3F4D57"></path>
            <path d="M672.591,189.326 L672.591,151.096 L678.527,151.096 L678.527,157.192 C681.612,153.233 686.045,150.226 691.268,150.226 L691.268,156.322 C690.556,156.244 689.842,156.162 688.974,156.162 C685.25,156.162 680.266,159.17 678.527,162.258 L678.527,189.326 L672.591,189.326" id="Fill-12" fill="#3F4D57"></path>
            <path d="M696.727,189.326 L702.663,189.326 L702.663,151.096 L696.727,151.096 L696.727,189.326 Z M695.701,141.68 C695.701,139.467 697.521,137.642 699.733,137.642 C701.95,137.642 703.689,139.467 703.689,141.68 C703.689,143.895 701.95,145.637 699.733,145.637 C697.521,145.637 695.701,143.895 695.701,141.68 L695.701,141.68 Z" id="Fill-13" fill="#3F4D57"></path>
            <path d="M713.743,181.33 L713.743,156.322 L707.412,156.322 L707.412,151.096 L713.743,151.096 L713.743,140.649 L719.757,140.649 L719.757,151.096 L727.514,151.096 L727.514,156.322 L719.757,156.322 L719.757,180.065 C719.757,182.917 721.023,184.972 723.555,184.972 C725.294,184.972 726.801,184.182 727.596,183.313 L729.334,187.822 C727.832,189.243 725.694,190.277 722.291,190.277 C716.593,190.277 713.743,187.032 713.743,181.33" id="Fill-14" fill="#3F4D57"></path>
            <path d="M732.655,198.903 C733.529,199.299 734.954,199.538 735.901,199.538 C738.513,199.538 740.259,198.664 741.598,195.501 L744.135,189.721 L728.145,151.096 L734.636,151.096 L747.299,182.44 L760.044,151.096 L766.454,151.096 L747.299,197.078 C745.004,202.623 741.128,204.761 736.061,204.839 C734.792,204.839 732.816,204.601 731.786,204.283 L732.655,198.903" id="Fill-15" fill="#3F4D57"></path>
            <path d="M231.076,103.346 L231.076,57.68 L216.52,57.68 L216.52,37.483 L231.076,37.483 L231.076,13.465 L254.184,13.465 L254.184,37.483 L272.011,37.483 L272.011,57.68 L254.184,57.68 L254.184,97.163 C254.184,102.804 257.095,106.987 262.188,106.987 C265.648,106.987 268.919,105.715 270.192,104.258 L275.107,121.905 C271.653,124.998 265.463,127.548 255.82,127.548 C239.627,127.548 231.076,119.176 231.076,103.346" id="Fill-16" fill="#3F4D57"></path>
            <path d="M322.775,54.226 C308.405,54.226 302.219,64.23 301.309,72.961 L344.614,72.961 C343.883,64.594 338.063,54.226 322.775,54.226 L322.775,54.226 Z M277.292,81.331 C277.292,55.863 296.212,35.303 322.775,35.303 C349.159,35.303 366.806,54.95 366.806,83.516 L366.806,88.972 L301.491,88.972 C303.127,99.708 311.861,108.628 326.783,108.628 C334.239,108.628 344.428,105.531 350.067,100.07 L360.442,115.359 C351.704,123.362 337.881,127.548 324.231,127.548 C297.487,127.548 277.292,109.536 277.292,81.331 L277.292,81.331 Z" id="Fill-17" fill="#3F4D57"></path>
            <path d="M434.78,125.362 L434.78,72.233 C434.78,60.047 428.409,55.863 418.585,55.863 C409.485,55.863 402.571,60.955 398.569,66.053 L398.569,125.362 L375.462,125.362 L375.462,37.483 L398.569,37.483 L398.569,48.764 C404.211,42.213 415.123,35.303 429.317,35.303 C448.786,35.303 458.069,46.219 458.069,63.321 L458.069,125.362 L434.78,125.362" id="Fill-18" fill="#3F4D57"></path>
            <path d="M523.896,104.258 L523.896,93.339 C520.083,88.248 512.803,85.519 505.345,85.519 C496.246,85.519 488.782,90.429 488.782,98.8 C488.782,107.171 496.246,111.901 505.345,111.901 C512.803,111.901 520.083,109.352 523.896,104.258 L523.896,104.258 Z M523.896,125.362 L523.896,116.083 C517.898,123.362 507.525,127.548 496.066,127.548 C482.056,127.548 465.677,118.088 465.677,98.436 C465.677,77.695 482.056,70.052 496.066,70.052 C507.89,70.052 518.078,73.874 523.896,80.789 L523.896,69.686 C523.896,60.773 516.257,54.95 504.616,54.95 C495.336,54.95 486.605,58.592 479.323,65.323 L470.223,49.126 C480.963,39.483 494.79,35.303 508.619,35.303 C528.814,35.303 547.189,43.306 547.189,68.596 L547.189,125.362 L523.896,125.362 L523.896,125.362 Z" id="Fill-19" fill="#3F4D57"></path>
            <path d="M600.213,106.987 C613.491,106.987 622.41,96.615 622.41,81.331 C622.41,66.231 613.491,55.863 600.213,55.863 C592.566,55.863 584.199,60.23 580.194,66.053 L580.194,97.163 C584.199,102.804 592.566,106.987 600.213,106.987 L600.213,106.987 Z M557.092,125.362 L557.092,4.005 L580.194,4.005 L580.194,48.764 C587.108,39.668 596.936,35.303 607.304,35.303 C629.686,35.303 646.24,52.769 646.24,81.331 C646.24,110.805 629.505,127.548 607.304,127.548 C596.751,127.548 587.108,122.814 580.194,114.082 L580.194,125.362 L557.092,125.362 L557.092,125.362 Z" id="Fill-20" fill="#3F4D57"></path>
            <polygon id="Fill-21" fill="#3F4D57" points="654.04 125.362 677.149 125.362 677.149 4.005 654.04 4.005"></polygon>
            <path d="M731.3,54.226 C716.93,54.226 710.745,64.23 709.836,72.961 L753.133,72.961 C752.409,64.594 746.585,54.226 731.3,54.226 L731.3,54.226 Z M685.818,81.331 C685.818,55.863 704.738,35.303 731.3,35.303 C757.687,35.303 775.333,54.95 775.333,83.516 L775.333,88.972 L710.015,88.972 C711.653,99.708 720.384,108.628 735.301,108.628 C742.766,108.628 752.953,105.531 758.596,100.07 L768.963,115.359 C760.231,123.362 746.402,127.548 732.756,127.548 C706.014,127.548 685.818,109.536 685.818,81.331 L685.818,81.331 Z" id="Fill-22" fill="#3F4D57"></path>
            <path d="M169.418,30.811 C169.961,32.816 171.931,40.15 173.794,47.122 L188.551,102.191 C190.418,109.16 192.391,116.502 192.934,118.507 C193.626,121.495 192.763,124.71 190.677,126.952 C189.204,128.429 183.833,133.798 178.734,138.896 L138.416,179.217 C133.316,184.315 127.939,189.69 126.467,191.166 C124.225,193.249 121.013,194.107 118.026,193.414 C116.015,192.878 108.674,190.903 101.716,189.053 L46.628,174.287 C39.659,172.419 32.32,170.453 30.321,169.909 C28.809,169.502 27.543,168.644 26.468,167.58 C25.417,166.519 24.549,165.238 24.134,163.723 C23.598,161.73 21.625,154.384 19.764,147.419 L4.994,92.329 C3.135,85.366 1.169,78.029 0.63,76.02 L2.736,75.448 L4.854,74.884 C5.391,76.897 7.353,84.238 9.218,91.196 L23.982,146.295 C25.847,153.249 27.821,160.594 28.35,162.607 C28.484,163.128 28.939,163.884 29.554,164.498 C30.17,165.112 30.928,165.571 31.435,165.691 C33.458,166.229 40.794,168.198 47.753,170.063 L102.844,184.819 C109.807,186.69 117.148,188.648 119.162,189.189 C120.178,189.584 122.679,188.907 123.372,188.065 C124.845,186.594 130.221,181.218 135.321,176.123 L175.639,135.797 C180.74,130.7 186.109,125.332 187.582,123.855 C188.426,123.159 189.095,120.664 188.714,119.646 C188.166,117.637 186.213,110.288 184.343,103.322 L169.569,48.247 C167.71,41.293 165.737,33.95 165.19,31.939 C165.072,31.438 164.623,30.661 164,30.052 C163.391,29.43 162.629,28.973 162.105,28.855 C160.102,28.314 152.756,26.34 145.794,24.47 L90.713,9.697 C83.757,7.833 76.408,5.877 74.403,5.337 C73.383,4.957 70.879,5.613 70.187,6.46 C68.714,7.935 63.342,13.305 58.246,18.403 L17.924,58.725 C12.824,63.824 7.448,69.199 5.978,70.671 C5.132,71.358 4.466,73.874 4.854,74.884 L2.736,75.448 L0.63,76.02 C-0.07,73.028 0.788,69.817 2.889,67.582 C4.359,66.109 9.737,60.733 14.827,55.63 L55.155,15.314 C60.254,10.216 65.625,4.844 67.098,3.374 C69.327,1.273 72.545,0.411 75.539,1.112 C77.542,1.653 84.877,3.622 91.849,5.486 L146.93,20.257 C153.892,22.115 161.235,24.088 163.232,24.627 C164.742,25.046 166.028,25.902 167.09,26.962 C168.162,28.035 169.013,29.319 169.418,30.811" id="Fill-23" fill="#1E9DA5"></path>
            <path d="M100.387,16.182 C101.868,17.032 107.293,20.161 112.443,23.141 L153.144,46.634 C158.293,49.61 163.724,52.738 165.209,53.592 C167.353,54.927 168.727,57.304 168.817,59.829 L168.817,73.749 L168.817,120.754 L168.817,134.686 C168.727,137.207 167.353,139.579 165.209,140.915 C163.724,141.776 158.295,144.904 153.158,147.88 L112.443,171.382 C107.291,174.361 101.87,177.494 100.387,178.34 C99.267,178.981 98.029,179.221 96.784,179.228 C95.553,179.221 94.3,178.981 93.174,178.34 C91.698,177.494 86.267,174.361 81.126,171.386 L40.403,147.88 C35.258,144.904 29.836,141.776 28.35,140.915 L29.246,139.356 L30.152,137.791 C31.638,138.652 37.061,141.788 42.205,144.761 L82.925,168.269 C88.068,171.235 93.498,174.369 94.983,175.23 C95.363,175.457 96.068,175.634 96.784,175.634 C97.503,175.634 98.211,175.457 98.578,175.23 C100.069,174.365 105.493,171.235 110.635,168.269 L151.35,144.761 C156.502,141.788 161.923,138.652 163.408,137.795 C164.231,137.431 165.296,135.574 165.209,134.686 L165.209,120.754 L165.209,73.749 L165.209,59.829 C165.296,58.929 164.231,57.086 163.414,56.712 C161.923,55.863 156.502,52.718 151.35,49.751 L110.635,26.255 C105.498,23.286 100.069,20.155 98.578,19.301 C98.217,19.08 97.503,18.888 96.782,18.897 C96.066,18.888 95.355,19.065 94.983,19.301 C93.498,20.155 88.068,23.286 82.919,26.255 L42.205,49.751 C37.061,52.718 31.638,55.863 30.152,56.712 C29.34,57.086 28.259,58.933 28.35,59.829 L28.35,73.749 L28.35,120.754 L28.35,134.686 C28.261,135.574 29.338,137.431 30.152,137.791 L29.246,139.356 L28.35,140.915 C26.199,139.579 24.827,137.207 24.751,134.686 C24.751,132.968 24.751,126.702 24.743,120.754 L24.751,73.749 L24.751,59.829 C24.827,57.304 26.199,54.927 28.35,53.592 C29.837,52.738 35.26,49.61 40.409,46.634 L81.126,23.141 C86.267,20.161 91.698,17.032 93.174,16.182 C94.302,15.549 95.545,15.294 96.782,15.294 C98.038,15.294 99.28,15.549 100.387,16.182" id="Fill-24" fill="#1E9DA5"></path>
            <path d="M48.021,43.439 C49.493,43.042 54.874,41.598 59.989,40.23 L100.396,29.399 C105.512,28.033 110.9,26.583 112.37,26.185 C114.561,25.676 116.921,26.311 118.569,27.841 C119.646,28.921 123.589,32.861 127.329,36.603 L156.916,66.187 C160.658,69.932 164.602,73.876 165.683,74.956 C167.215,76.602 167.845,78.96 167.334,81.151 C166.942,82.625 165.492,88.014 164.133,93.119 L153.299,133.541 C151.93,138.656 150.488,144.038 150.088,145.508 C149.788,146.614 149.159,147.549 148.38,148.333 C147.599,149.105 146.66,149.738 145.55,150.046 C144.086,150.44 138.698,151.891 133.588,153.252 L93.163,164.089 C88.052,165.452 82.669,166.898 81.193,167.292 L80.774,165.747 L80.36,164.192 C81.836,163.795 87.225,162.36 92.331,160.99 L132.76,150.16 C137.865,148.787 143.254,147.342 144.733,146.95 C145.112,146.854 145.666,146.52 146.12,146.07 C146.568,145.619 146.905,145.059 146.992,144.688 C147.388,143.206 148.832,137.82 150.202,132.721 L161.03,92.29 C162.405,87.183 163.84,81.793 164.234,80.318 C164.523,79.574 164.027,77.737 163.412,77.231 C162.332,76.147 158.389,72.203 154.645,68.462 L125.061,38.877 C121.32,35.134 117.377,31.192 116.295,30.112 C115.782,29.494 113.956,29.004 113.206,29.282 C111.734,29.682 106.34,31.116 101.227,32.491 L60.815,43.329 C55.711,44.694 50.323,46.14 48.849,46.543 C48.481,46.626 47.911,46.961 47.463,47.415 C47.006,47.863 46.67,48.423 46.586,48.809 C46.187,50.277 44.742,55.666 43.367,60.775 L32.529,101.186 C31.162,106.298 29.724,111.688 29.328,113.158 C29.049,113.907 29.531,115.748 30.155,116.254 C31.234,117.333 35.176,121.278 38.919,125.019 L68.503,154.605 C72.245,158.345 76.19,162.287 77.269,163.369 C77.776,163.984 79.62,164.477 80.36,164.192 L80.774,165.747 L81.193,167.292 C78.998,167.807 76.644,167.178 75.003,165.636 C73.92,164.556 69.978,160.611 66.232,156.875 L36.65,127.284 C32.907,123.54 28.969,119.601 27.888,118.521 C26.348,116.879 25.716,114.525 26.227,112.33 C26.627,110.856 28.071,105.475 29.44,100.358 L40.275,59.94 C41.643,54.831 43.09,49.442 43.481,47.98 C43.791,46.869 44.418,45.929 45.198,45.148 C45.985,44.363 46.927,43.735 48.021,43.439" id="Fill-25" fill="#1E9DA5"></path>
            <path d="M153.426,154.075 C184.765,122.731 184.844,71.999 153.6,40.753 C122.359,9.509 71.622,9.587 40.28,40.929 C8.94,72.27 8.86,123.007 40.105,154.251 C71.351,185.492 122.086,185.418 153.426,154.075 L153.426,154.075 Z M37.363,156.68 C4.545,123.862 4.547,70.66 37.365,37.843 C70.178,5.028 123.384,5.028 156.196,37.843 C189.014,70.655 189.014,123.862 156.198,156.68 C123.384,189.495 70.178,189.495 37.363,156.68 L37.363,156.68 Z" id="Fill-26" fill="#1E9DA5"></path>
            <path d="M99.451,36.428 C100.549,37.059 104.566,39.376 108.379,41.579 L138.522,58.981 C142.338,61.184 146.358,63.503 147.458,64.134 C149.047,65.124 150.065,66.882 150.132,68.755 C150.132,70.024 150.132,74.663 150.131,79.065 L150.132,113.877 L150.132,124.192 C150.063,126.062 149.047,127.821 147.458,128.804 C146.358,129.443 142.338,131.761 138.533,133.966 L108.379,151.371 C104.566,153.573 100.549,155.894 99.451,156.521 C98.622,156.998 97.706,157.177 96.781,157.182 C95.871,157.177 94.942,156.998 94.11,156.521 C93.015,155.894 88.996,153.573 85.185,151.371 L55.025,133.966 C51.218,131.761 47.2,129.443 46.101,128.804 L46.763,127.648 L47.436,126.492 C48.536,127.131 52.553,129.451 56.361,131.651 L86.519,149.064 C90.326,151.258 94.351,153.577 95.449,154.218 C95.729,154.388 96.253,154.519 96.781,154.515 C97.316,154.519 97.839,154.388 98.112,154.218 C99.217,153.577 103.232,151.258 107.042,149.064 L137.193,131.651 C141.007,129.451 145.024,127.131 146.125,126.492 C146.735,126.225 147.522,124.853 147.458,124.192 L147.458,113.877 L147.458,79.065 L147.458,68.755 C147.522,68.086 146.735,66.723 146.131,66.447 C145.024,65.815 141.007,63.487 137.193,61.287 L107.042,43.889 C103.239,41.688 99.215,39.373 98.112,38.74 C97.845,38.575 97.314,38.436 96.781,38.439 C96.249,38.436 95.727,38.562 95.449,38.742 C94.351,39.373 90.326,41.688 86.514,43.889 L56.361,61.287 C52.553,63.487 48.536,65.815 47.436,66.447 C46.83,66.723 46.036,68.086 46.101,68.755 L46.101,79.065 L46.101,113.877 L46.101,124.192 C46.036,124.853 46.83,126.225 47.436,126.492 L46.763,127.648 L46.101,128.804 C44.509,127.821 43.492,126.062 43.436,124.192 C43.436,122.918 43.436,118.277 43.428,113.877 L43.436,79.065 L43.436,68.755 C43.492,66.882 44.509,65.124 46.101,64.134 C47.203,63.503 51.218,61.184 55.032,58.981 L85.185,41.579 C88.996,39.376 93.015,37.059 94.11,36.428 C94.942,35.958 95.866,35.77 96.781,35.77 C97.71,35.77 98.631,35.958 99.451,36.428" id="Fill-27" fill="#1E9DA5"></path>
            <path d="M138.732,138.554 C161.945,115.339 162.001,77.767 138.86,54.626 C115.723,31.484 78.149,31.545 54.937,54.756 C31.724,77.967 31.669,115.542 54.806,138.684 C77.947,161.817 115.522,161.764 138.732,138.554 L138.732,138.554 Z M52.774,140.479 C28.471,116.173 28.473,76.774 52.774,52.472 C77.08,28.167 116.48,28.167 140.784,52.472 C165.09,76.771 165.09,116.177 140.784,140.479 C116.482,164.781 77.08,164.781 52.774,140.479 L52.774,140.479 Z" id="Fill-28" fill="#1E9DA5"></path>
            <path d="M784.526,26.964 L781.134,26.964 L781.134,31.521 L784.526,31.521 C785.586,31.521 786.752,30.559 786.752,29.293 C786.752,27.927 785.586,26.964 784.526,26.964 L784.526,26.964 Z M786.55,37.848 L783.36,32.988 L781.134,32.988 L781.134,37.848 L779.515,37.848 L779.515,25.547 L784.526,25.547 C786.6,25.547 788.421,27.016 788.421,29.293 C788.421,32.026 785.994,32.939 785.285,32.939 L788.574,37.848 L786.55,37.848 L786.55,37.848 Z M783.612,22.408 C778.501,22.408 774.35,26.46 774.35,31.671 C774.35,36.735 778.501,40.935 783.612,40.935 C788.726,40.935 792.877,36.735 792.877,31.671 C792.877,26.46 788.726,22.408 783.612,22.408 L783.612,22.408 Z M783.612,42.404 C777.693,42.404 772.883,37.594 772.883,31.671 C772.883,25.699 777.693,20.941 783.612,20.941 C789.588,20.941 794.344,25.699 794.344,31.671 C794.344,37.594 789.588,42.404 783.612,42.404 L783.612,42.404 Z" id="Fill-29" fill="#3F4D57"></path>
        </g>
    </g>
</svg>