<?xml version="1.0" encoding="UTF-8"?>
<!-- Generator: Adobe Illustrator 18.0.0, SVG Export Plug-In . SVG Version: 6.00 Build 0)  -->
<!DOCTYPE svg PUBLIC "-//W3C//DTD SVG 1.1//EN" "http://www.w3.org/Graphics/SVG/1.1/DTD/svg11.dtd">
<svg version="1.1" id="Layer_1" xmlns="http://www.w3.org/2000/svg" xmlns:xlink="http://www.w3.org/1999/xlink" x="0px" y="0px" viewBox="0 0 1109.2 321.2" enable-background="new 0 0 1109.2 321.2" xml:space="preserve">
<g>
	<path fill="#0DD5B2" d="M248.5,61.6c0-7.3,2.6-13.5,7.9-18.8c5.3-5.3,11.6-7.9,19-7.9c7.5,0,13.9,2.6,19.2,7.9   c5.3,5.2,7.9,11.5,7.9,19c0,7.5-2.6,13.9-7.9,19.2c-5.2,5.3-11.5,7.9-19,7.9c-7.5,0-13.9-2.6-19.2-7.9   C251.1,75.7,248.5,69.3,248.5,61.6z M296.3,136.4V316h-41.5V136.4H296.3z"/>
	<path fill="#0DD5B2" d="M650,193c-47.9-59.5-81.5-145.5-93-193h49.4c7.2,39.6,30.4,108.5,65.1,145c34.1-36.9,56.6-106,65.3-145   h49.4c-9.7,57-43.1,141.8-93.4,193V316h-43V193z"/>
	<path fill="#0DD5B2" d="M884.9,136.4h41.7V316h-41.7v-18.8c-17.1,16-35.5,24-55.2,24c-24.8,0-45.4-9-61.6-26.9   c-16.1-18.3-24.2-41.2-24.2-68.6c0-26.9,8.1-49.4,24.2-67.3c16.1-18,36.3-26.9,60.5-26.9c20.9,0,39.7,8.6,56.3,25.8V136.4z    M786.4,225.6c0,17.2,4.6,31.2,13.8,42.1c9.5,10.9,21.4,16.4,35.8,16.4c15.4,0,27.8-5.3,37.3-15.9c9.5-10.9,14.2-24.8,14.2-41.7   c0-16.8-4.7-30.7-14.2-41.7c-9.5-10.7-21.8-16.1-36.9-16.1c-14.3,0-26.2,5.4-35.8,16.2C791.1,196,786.4,209.5,786.4,225.6z"/>
	<path fill="#0DD5B2" d="M989.3,4.4l0,190c22-18.5,41.7-45.2,58.5-65.5h55.7c-18.8,20.5-44,55.1-78,82.8   c28.3,30.8,56.2,66,83.8,104.2h-53.9c-17.2-27-36.9-52.4-59.4-75.8l-6.6,6.6V316h-41.5V4.4H989.3z"/>
	<path fill="#0DD5B2" d="M93,193C45.1,133.4,11.4,47.4,0,0h49.4c7.2,39.6,30.4,108.5,65.1,145c34.1-36.9,56.6-106,65.3-145h49.4   c-9.7,57-43.1,141.8-93.4,193V316H93V193z"/>
	<path fill="#0DD5B2" d="M370.6,2.2l0,190c22-18.5,44.8-42.9,58.5-65.5l55.7,0c-15.5,23-43.8,54.9-78,82.8   c28.3,30.8,56.1,66,83.8,104.2h-53.9c-17.2-27-36.9-52.4-59.4-75.8l-6.6,6.6v69.2h-41.5V2.2H370.6z"/>
</g>
</svg>